# Blender 4.5.5 LTS
# www.blender.org
o Base
v 0.500000 0.203523 -0.500000
v 0.500000 0.000000 -0.500000
v 0.500000 0.203523 0.500000
v 0.500000 0.000000 0.500000
v -0.500000 0.203523 -0.500000
v -0.500000 0.000000 -0.500000
v -0.500000 0.203523 0.500000
v -0.500000 0.000000 0.500000
v -0.298995 0.203747 0.286487
v -0.298995 0.756085 0.286487
v -0.298995 0.203747 -0.302391
v -0.298995 0.756085 -0.302391
v 0.293881 0.203747 0.286487
v 0.293881 0.756085 0.286487
v 0.293881 0.203747 -0.302391
v 0.293881 0.756085 -0.302391
vn -0.0000 1.0000 -0.0000
vn -0.0000 -0.0000 1.0000
vn -1.0000 -0.0000 -0.0000
vn -0.0000 -1.0000 -0.0000
vn 1.0000 -0.0000 -0.0000
vn -0.0000 -0.0000 -1.0000
vt 0.576644 0.623129
vt 0.656516 0.543023
vt 0.656516 0.623129
vt 0.736674 0.462918
vt 0.736674 0.543023
vt 0.656537 0.783186
vt 0.736674 0.702927
vt 0.736674 0.783186
vt 0.736674 0.623129
vt 0.816934 0.543023
vt 0.816934 0.623129
vt 0.656537 0.702927
vt 0.576525 0.462796
vt 0.496266 0.542689
vt 0.496266 0.462796
vt 0.576525 0.542689
vt 0.496266 0.622948
vt 0.576525 0.622948
vt 0.496266 0.703208
vt 0.576525 0.703208
vt 0.496266 0.783467
vt 0.416007 0.703208
vt 0.416007 0.622948
vt 0.656494 0.622948
vt 0.576644 0.543023
vt 0.656903 0.462918
vt 0.576525 0.783467
vt 0.656494 0.703208
s 0
f 5/1/1 3/2/1 1/3/1
f 3/2/2 8/4/2 4/5/2
f 7/6/3 6/7/3 8/8/3
f 2/9/4 8/10/4 6/11/4
f 1/3/5 4/5/5 2/9/5
f 5/12/6 2/9/6 6/7/6
f 10/13/3 11/14/3 9/15/3
f 12/16/6 15/17/6 11/14/6
f 16/18/5 13/19/5 15/17/5
f 14/20/2 9/21/2 13/19/2
f 15/17/4 9/22/4 11/23/4
f 12/24/1 14/20/1 16/18/1
f 5/1/1 7/25/1 3/2/1
f 3/2/2 7/26/2 8/4/2
f 7/6/3 5/12/3 6/7/3
f 2/9/4 4/5/4 8/10/4
f 1/3/5 3/2/5 4/5/5
f 5/12/6 1/3/6 2/9/6
f 10/13/3 12/16/3 11/14/3
f 12/16/6 16/18/6 15/17/6
f 16/18/5 14/20/5 13/19/5
f 14/20/2 10/27/2 9/21/2
f 15/17/4 13/19/4 9/22/4
f 12/24/1 10/28/1 14/20/1
o rotate
v -0.235375 0.756274 0.097057
v -0.235064 0.756274 -0.097806
v -0.141111 0.756274 -0.218997
v 0.141785 0.756274 -0.218546
v 0.235375 0.756274 -0.097057
v 0.235064 0.756274 0.097806
v 0.141111 0.756274 0.219435
v -0.141785 0.756274 0.218984
v -0.235375 1.027700 0.097057
v -0.235064 1.027700 -0.097806
v -0.141111 1.027700 -0.218997
v 0.141785 1.027700 -0.218546
v 0.235375 1.027700 -0.097057
v 0.235064 1.027700 0.097806
v 0.141111 1.027700 0.219435
v -0.141785 1.027700 0.218984
vn 0.0016 -0.0000 -1.0000
vn -0.0016 -0.0000 1.0000
vn -0.7903 -0.0000 -0.6127
vn 0.7922 -0.0000 -0.6103
vn -0.0000 1.0000 -0.0000
vn -0.7933 -0.0000 0.6089
vn 0.7914 -0.0000 0.6113
vt 0.069233 0.542329
vt 0.134796 0.610663
vt 0.069233 0.610663
vt 0.069233 0.610669
vt 0.003669 0.542335
vt 0.069233 0.542335
vt 0.069233 0.519681
vt 0.134796 0.542329
vt 0.069233 0.633317
vt 0.069414 0.746953
vt 0.098579 0.655924
vt 0.098688 0.724258
vt 0.200469 0.610710
vt 0.229740 0.519681
vt 0.229921 0.633317
vt 0.003669 0.519681
vt 0.200360 0.633317
vt 0.134796 0.519681
vt 0.200360 0.519681
vt 0.003669 0.633317
vt 0.069233 0.746953
vt 0.003669 0.746953
vt 0.003669 0.610669
vt 0.003669 0.633317
vt 0.134796 0.633317
vt 0.200360 0.542376
vt 0.069233 0.633317
s 0
f 19/29/7 28/30/7 20/31/7
f 23/32/8 32/33/8 24/34/8
f 18/35/9 27/36/9 19/29/9
f 28/30/10 21/37/10 20/31/10
f 26/38/11 28/39/11 27/40/11
f 32/41/11 30/42/11 25/43/11
f 24/34/12 25/44/12 17/35/12
f 17/45/7 30/46/7 22/47/7
f 21/48/8 26/49/8 18/50/8
f 31/51/13 22/37/13 30/52/13
f 19/29/7 27/36/7 28/30/7
f 23/32/8 31/51/8 32/33/8
f 18/35/9 26/46/9 27/36/9
f 28/30/10 29/53/10 21/37/10
f 26/38/11 29/37/11 28/39/11
f 32/41/11 31/54/11 30/42/11
f 24/34/12 32/33/12 25/44/12
f 17/45/7 25/53/7 30/46/7
f 21/48/8 29/55/8 26/49/8
f 31/51/13 23/32/13 22/37/13
o mirror
v -1.008151 1.237660 -0.737348
v -1.008151 1.349996 -0.737348
v 1.004923 1.237661 0.766060
v 1.004923 1.349996 0.766060
v 1.004923 1.237660 -0.737348
v 1.004923 1.349996 -0.737348
v -1.008151 1.237661 0.766060
v -1.008151 1.349996 0.766060
v -0.235376 1.237661 -0.096712
v 0.229456 1.237661 -0.095059
v 0.229691 1.237661 0.096258
v -0.234885 1.237661 0.095984
v -0.235376 1.030001 -0.096712
v -0.234885 1.030001 0.095984
v -0.197899 0.900254 -0.096712
v -0.197490 0.900527 0.095984
v -0.094654 0.813195 -0.096712
v -0.094466 0.813649 0.095984
v 0.083368 0.810823 -0.096712
v 0.083180 0.811277 0.095984
v 0.188896 0.895099 -0.096712
v 0.188487 0.895372 0.095984
v 0.229818 1.023801 -0.096712
v 0.229326 1.023801 0.095984
v -1.008151 1.237660 -0.737348
v -1.008151 1.349996 -0.737348
v 1.004923 1.237660 -0.737348
v 1.004923 1.349996 -0.737348
v -1.008151 1.237660 -0.737348
v -1.008151 1.349996 -0.737348
v -1.008151 1.237661 0.766060
v -1.008151 1.349996 0.766060
v 1.004923 1.237661 0.766060
v 1.004923 1.349996 0.766060
v -1.008151 1.237661 0.766060
v -1.008151 1.349996 0.766060
v 1.004923 1.237661 0.766060
v 1.004923 1.349996 0.766060
v 1.004923 1.237660 -0.737348
v 1.004923 1.349996 -0.737348
vn 1.0000 -0.0000 -0.0000
vn -0.0000 -0.0000 1.0000
vn -1.0000 -0.0000 0.0025
vn 0.6240 -0.7814 0.0024
vn -0.6447 -0.7645 0.0024
vn -0.0134 -0.9999 0.0024
vn 1.0000 0.0017 0.0025
vn -0.0000 -0.0000 -1.0000
vn -0.0000 1.0000 -0.0000
vn -1.0000 -0.0000 -0.0000
vn 0.9530 -0.3030 0.0024
vn -0.9607 -0.2775 0.0024
vn -0.0000 -1.0000 -0.0000
vn -0.0006 -0.0013 1.0000
vn -0.6446 -0.7645 0.0024
vn -0.0133 -0.9999 0.0023
vn 1.0000 -0.0017 -0.0012
vn 0.0036 0.0077 -1.0000
vt 0.644620 0.968802
vt 0.406391 0.990254
vt 0.644535 0.990251
vt 0.406318 0.968632
vt 0.643767 0.989404
vt 0.406786 0.990604
vt 0.494229 0.879767
vt 0.494142 0.890679
vt 0.458912 0.890277
vt 0.376997 0.767587
vt 0.001978 0.992228
vt 0.001978 0.767581
vt 0.644508 0.968764
vt 0.406303 0.990218
vt 0.644530 0.990226
vt 0.406305 0.968738
vt 0.644635 0.990248
vt 0.406246 0.990270
vt 0.406305 0.953109
vt 0.550781 0.808594
vt 0.550781 0.953125
vt 0.406256 0.968677
vt 0.644077 0.970009
vt 0.458999 0.879440
vt 0.376965 0.992253
vt 0.406284 0.968802
vt 0.644612 0.968729
vt 0.406348 0.806750
s 0
f 69/56/14 72/57/14 70/58/14
f 67/59/15 66/60/15 68/61/15
f 48/62/15 52/62/15 56/62/15
f 41/63/16 46/62/16 44/62/16
f 51/63/17 54/62/17 52/62/17
f 47/63/18 50/62/18 48/62/18
f 49/63/19 52/62/19 50/62/19
f 42/64/20 56/62/20 55/63/20
f 51/63/21 47/63/21 41/63/21
f 36/65/22 34/66/22 40/67/22
f 59/68/21 58/69/21 60/70/21
f 61/71/23 64/72/23 62/73/23
f 53/63/24 56/62/24 54/62/24
f 45/63/25 48/62/25 46/62/25
f 37/74/26 39/75/26 33/76/26
f 69/56/14 71/77/14 72/57/14
f 67/59/15 65/78/15 66/60/15
f 56/62/27 43/79/27 44/62/27
f 44/62/15 46/62/15 48/62/15
f 48/62/15 50/62/15 52/62/15
f 52/62/15 54/62/15 56/62/15
f 56/62/15 44/62/15 48/62/15
f 41/63/16 45/63/16 46/62/16
f 51/63/17 53/63/17 54/62/17
f 47/63/28 49/63/28 50/62/28
f 49/63/29 51/63/29 52/62/29
f 42/64/30 43/79/30 56/62/30
f 41/63/31 42/64/31 55/63/31
f 55/63/21 53/63/21 51/63/21
f 51/63/21 49/63/21 47/63/21
f 47/63/21 45/63/21 41/63/21
f 41/63/21 55/63/21 51/63/21
f 36/65/22 38/80/22 34/66/22
f 59/68/21 57/81/21 58/69/21
f 61/71/23 63/82/23 64/72/23
f 53/63/24 55/63/24 56/62/24
f 45/63/25 47/63/25 48/62/25
f 37/74/26 35/83/26 39/75/26
