# Blender v3.6.2 OBJ File: 'TFRU-SunBoiler.blend'
# www.blender.org
o Base
v 0.500000 0.203523 -0.500000
v 0.500000 0.000000 -0.500000
v 0.500000 0.203523 0.500000
v 0.500000 0.000000 0.500000
v -0.500000 0.203523 -0.500000
v -0.500000 0.000000 -0.500000
v -0.500000 0.203523 0.500000
v -0.500000 0.000000 0.500000
v -0.298995 0.203747 0.286487
v -0.298995 0.756085 0.286487
v -0.298995 0.203747 -0.302391
v -0.298995 0.756085 -0.302391
v 0.293881 0.203747 0.286487
v 0.293881 0.756085 0.286487
v 0.293881 0.203747 -0.302391
v 0.293881 0.756085 -0.302391
vt 0.576644 0.623129
vt 0.656516 0.543023
vt 0.656516 0.623129
vt 0.736674 0.462918
vt 0.736674 0.543023
vt 0.656537 0.783186
vt 0.736674 0.702927
vt 0.736674 0.783186
vt 0.736674 0.623129
vt 0.816934 0.543023
vt 0.816934 0.623129
vt 0.656537 0.702927
vt 0.576525 0.462796
vt 0.496266 0.542689
vt 0.496266 0.462796
vt 0.576525 0.542689
vt 0.496266 0.622948
vt 0.576525 0.622948
vt 0.496266 0.703208
vt 0.576525 0.703208
vt 0.496266 0.783467
vt 0.416007 0.703208
vt 0.416007 0.622948
vt 0.656494 0.622948
vt 0.576644 0.543023
vt 0.656903 0.462918
vt 0.576525 0.783467
vt 0.656494 0.703208
vn 0.0000 1.0000 0.0000
vn 0.0000 0.0000 1.0000
vn -1.0000 0.0000 0.0000
vn 0.0000 -1.0000 0.0000
vn 1.0000 0.0000 0.0000
vn 0.0000 0.0000 -1.0000
s off
f 5/1/1 3/2/1 1/3/1
f 3/2/2 8/4/2 4/5/2
f 7/6/3 6/7/3 8/8/3
f 2/9/4 8/10/4 6/11/4
f 1/3/5 4/5/5 2/9/5
f 5/12/6 2/9/6 6/7/6
f 10/13/3 11/14/3 9/15/3
f 12/16/6 15/17/6 11/14/6
f 16/18/5 13/19/5 15/17/5
f 14/20/2 9/21/2 13/19/2
f 15/17/4 9/22/4 11/23/4
f 12/24/1 14/20/1 16/18/1
f 5/1/1 7/25/1 3/2/1
f 3/2/2 7/26/2 8/4/2
f 7/6/3 5/12/3 6/7/3
f 2/9/4 4/5/4 8/10/4
f 1/3/5 3/2/5 4/5/5
f 5/12/6 1/3/6 2/9/6
f 10/13/3 12/16/3 11/14/3
f 12/16/6 16/18/6 15/17/6
f 16/18/5 14/20/5 13/19/5
f 14/20/2 10/27/2 9/21/2
f 15/17/4 13/19/4 9/22/4
f 12/24/1 10/28/1 14/20/1
o rotate
v -0.180316 0.756274 0.179742
v -0.211917 0.756274 0.141111
v -0.235375 0.756274 0.097057
v -0.235064 0.756274 -0.097806
v -0.211467 0.756274 -0.141785
v -0.179743 0.756274 -0.180316
v -0.141111 0.756274 -0.211917
v -0.097057 0.756274 -0.235375
v -0.049272 0.756274 -0.249787
v 0.000405 0.756274 -0.254600
v 0.050067 0.756274 -0.249629
v 0.097805 0.756274 -0.235064
v 0.141785 0.756274 -0.211467
v 0.180316 0.756274 -0.179743
v 0.211917 0.756274 -0.141111
v 0.235375 0.756274 -0.097057
v 0.235064 0.756274 0.097806
v 0.211467 0.756274 0.141785
v 0.179743 0.756274 0.180316
v 0.141111 0.756274 0.211917
v 0.097057 0.756274 0.235375
v 0.049272 0.756274 0.249787
v -0.000405 0.756274 0.254600
v -0.050067 0.756274 0.249629
v -0.097806 0.756274 0.235064
v -0.141785 0.756274 0.211467
v -0.180316 1.027700 0.179742
v -0.211917 1.027700 0.141111
v -0.235375 1.027700 0.097057
v -0.235064 1.027700 -0.097806
v -0.211467 1.027700 -0.141785
v -0.179743 1.027700 -0.180316
v -0.141111 1.027700 -0.211917
v -0.097057 1.027700 -0.235375
v -0.049272 1.027700 -0.249787
v 0.000405 1.027700 -0.254600
v 0.050067 1.027700 -0.249629
v 0.097805 1.027700 -0.235064
v 0.141785 1.027700 -0.211467
v 0.180316 1.027700 -0.179743
v 0.211917 1.027700 -0.141111
v 0.235375 1.027700 -0.097057
v 0.235064 1.027700 0.097806
v 0.211467 1.027700 0.141785
v 0.179743 1.027700 0.180316
v 0.141111 1.027700 0.211917
v 0.097057 1.027700 0.235375
v 0.049272 1.027700 0.249787
v -0.000405 1.027700 0.254600
v -0.050067 1.027700 0.249629
v -0.097806 1.027700 0.235064
v -0.141785 1.027700 0.211467
vt 0.220521 0.735682
vt 0.259860 0.676604
vt 0.245902 0.607012
vt 0.188183 0.735733
vt 0.173903 0.593074
vt 0.146845 0.658691
vt 0.252770 0.556318
vt 0.222444 0.405114
vt 0.272712 0.455223
vt 0.180771 0.542379
vt 0.166813 0.472788
vt 0.206152 0.413710
vt 0.002844 0.610819
vt 0.101867 0.596744
vt 0.101867 0.610819
vt 0.101867 0.508915
vt 0.002844 0.490794
vt 0.101867 0.490794
vt 0.002844 0.739655
vt 0.101867 0.728103
vt 0.101867 0.739655
vt 0.002844 0.626878
vt 0.101867 0.626878
vt 0.002844 0.472673
vt 0.101867 0.472673
vt 0.101867 0.748238
vt 0.002844 0.748238
vt 0.002844 0.644303
vt 0.101867 0.644303
vt 0.002844 0.455249
vt 0.101867 0.455249
vt 0.101867 0.576609
vt 0.002844 0.568026
vt 0.101867 0.568026
vt 0.101867 0.662424
vt 0.002844 0.662424
vt 0.002844 0.439190
vt 0.101867 0.439190
vt 0.101867 0.425115
vt 0.002844 0.413563
vt 0.101867 0.413563
vt 0.002844 0.556474
vt 0.101867 0.556474
vt 0.002844 0.680545
vt 0.101867 0.680545
vt 0.002844 0.425115
vt 0.002844 0.404980
vt 0.101867 0.404980
vt 0.002844 0.542399
vt 0.101867 0.542399
vt 0.101867 0.697969
vt 0.002844 0.697969
vt 0.101867 0.504003
vt 0.140761 0.404980
vt 0.140761 0.504003
vt 0.002844 0.576609
vt 0.101867 0.585193
vt 0.002844 0.585193
vt 0.002844 0.526340
vt 0.101867 0.526340
vt 0.101867 0.714028
vt 0.002844 0.714028
vt 0.101867 0.576609
vt 0.142640 0.748238
vt 0.101867 0.748238
vt 0.002844 0.596744
vt 0.002844 0.508915
vt 0.002844 0.728103
vt 0.204229 0.572923
vt 0.204502 0.744277
vt 0.234556 0.724126
vt 0.246066 0.710055
vt 0.254610 0.694009
vt 0.261613 0.658509
vt 0.259802 0.640420
vt 0.254497 0.623032
vt 0.234347 0.592978
vt 0.220276 0.581467
vt 0.162556 0.710188
vt 0.174111 0.724222
vt 0.153961 0.694168
vt 0.204229 0.744277
vt 0.203956 0.572923
vt 0.187937 0.581518
vt 0.162392 0.607145
vt 0.153848 0.623191
vt 0.148598 0.640596
vt 0.148656 0.676780
vt 0.238736 0.567873
vt 0.222717 0.576468
vt 0.238491 0.413658
vt 0.252562 0.425169
vt 0.264117 0.439204
vt 0.278017 0.472611
vt 0.279828 0.490700
vt 0.278075 0.508795
vt 0.272825 0.526200
vt 0.264281 0.542246
vt 0.206398 0.567924
vt 0.192326 0.556413
vt 0.172176 0.526360
vt 0.166871 0.508971
vt 0.165060 0.490882
vt 0.172063 0.455383
vt 0.180607 0.439336
vt 0.192117 0.425265
vt 0.222171 0.405114
vt 0.222444 0.576468
vt 0.002844 0.576609
vt 0.101867 0.404980
vt 0.101867 0.576609
vt 0.142640 0.576609
vn 0.0000 -1.0000 -0.0000
vn 0.0000 1.0000 0.0000
vn -0.6332 0.0000 -0.7740
vn 0.0964 -0.0000 0.9953
vn 0.7740 0.0000 -0.6332
vn -0.4700 0.0000 -0.8827
vn -0.0996 0.0000 0.9950
vn 0.8827 0.0000 -0.4700
vn -0.2888 0.0000 -0.9574
vn -0.2918 0.0000 0.9565
vn 0.8812 0.0000 0.4728
vn -0.0964 0.0000 -0.9953
vn -0.4728 0.0000 0.8812
vn -0.7740 0.0000 0.6332
vn 0.7720 0.0000 0.6356
vn 0.0996 -0.0000 -0.9950
vn -0.6356 0.0000 0.7720
vn -0.8827 0.0000 0.4700
vn 0.6332 -0.0000 0.7740
vn 0.2918 -0.0000 -0.9565
vn 0.0016 -0.0000 -1.0000
vn -0.8812 0.0000 -0.4728
vn 0.4700 -0.0000 0.8827
vn 0.4728 -0.0000 -0.8812
vn -0.0016 0.0000 1.0000
vn -0.7720 0.0000 -0.6356
vn 0.2888 -0.0000 0.9574
vn 0.6356 0.0000 -0.7720
s off
f 21/29/7 25/30/7 29/31/7
f 18/32/7 35/33/7 39/34/7
f 48/35/8 58/36/8 54/37/8
f 68/38/8 64/39/8 60/40/8
f 23/41/9 48/42/9 49/43/9
f 38/44/10 65/45/10 39/46/10
f 31/47/11 56/48/11 57/49/11
f 24/50/12 49/43/12 50/51/12
f 39/46/13 66/52/13 40/53/13
f 31/47/14 58/54/14 32/55/14
f 25/56/15 50/51/15 51/57/15
f 40/53/16 67/58/16 41/59/16
f 33/60/17 60/61/17 34/62/17
f 25/56/18 52/63/18 26/64/18
f 41/59/19 68/65/19 42/66/19
f 17/67/20 44/68/20 18/69/20
f 34/62/21 61/70/21 35/71/21
f 27/72/22 52/63/22 53/73/22
f 42/66/23 43/74/23 17/67/23
f 18/69/24 45/75/24 19/76/24
f 35/71/25 62/77/25 36/78/25
f 27/72/26 54/79/26 28/80/26
f 19/81/27 59/82/27 33/83/27
f 20/84/28 47/85/28 21/86/28
f 36/78/29 63/87/29 37/88/29
f 28/80/30 55/89/30 29/90/30
f 32/91/31 46/92/31 20/93/31
f 21/86/32 48/42/32 22/94/32
f 37/88/33 64/95/33 38/44/33
f 29/90/34 56/48/34 30/96/34
f 32/97/7 20/98/7 21/29/7
f 21/29/7 22/99/7 25/30/7
f 22/99/7 23/100/7 25/30/7
f 23/100/7 24/101/7 25/30/7
f 25/30/7 26/102/7 27/103/7
f 27/103/7 28/104/7 25/30/7
f 28/104/7 29/31/7 25/30/7
f 29/31/7 30/105/7 21/29/7
f 30/105/7 31/106/7 21/29/7
f 31/106/7 32/97/7 21/29/7
f 42/107/7 17/108/7 41/109/7
f 17/108/7 18/32/7 41/109/7
f 18/32/7 19/110/7 33/111/7
f 33/111/7 34/112/7 18/32/7
f 34/112/7 35/33/7 18/32/7
f 35/33/7 36/113/7 37/114/7
f 37/114/7 38/115/7 35/33/7
f 38/115/7 39/34/7 35/33/7
f 39/34/7 40/116/7 18/32/7
f 40/116/7 41/109/7 18/32/7
f 47/117/8 46/118/8 58/36/8
f 58/36/8 57/119/8 56/120/8
f 56/120/8 55/121/8 54/37/8
f 54/37/8 53/122/8 52/123/8
f 52/123/8 51/124/8 54/37/8
f 51/124/8 50/125/8 54/37/8
f 50/125/8 49/126/8 48/35/8
f 48/35/8 47/117/8 58/36/8
f 58/36/8 56/120/8 54/37/8
f 50/125/8 48/35/8 54/37/8
f 44/127/8 43/128/8 68/38/8
f 68/38/8 67/129/8 64/39/8
f 67/129/8 66/130/8 64/39/8
f 66/130/8 65/131/8 64/39/8
f 64/39/8 63/132/8 62/133/8
f 62/133/8 61/134/8 64/39/8
f 61/134/8 60/40/8 64/39/8
f 60/40/8 59/135/8 45/136/8
f 45/136/8 44/127/8 60/40/8
f 44/127/8 68/38/8 60/40/8
f 23/41/9 22/94/9 48/42/9
f 38/44/10 64/95/10 65/45/10
f 31/47/11 30/96/11 56/48/11
f 24/50/12 23/41/12 49/43/12
f 39/46/13 65/45/13 66/52/13
f 31/47/14 57/49/14 58/54/14
f 25/56/15 24/50/15 50/51/15
f 40/53/16 66/52/16 67/58/16
f 33/60/17 59/137/17 60/61/17
f 25/56/18 51/57/18 52/63/18
f 41/59/19 67/58/19 68/65/19
f 17/67/20 43/74/20 44/68/20
f 34/62/21 60/61/21 61/70/21
f 27/72/22 26/64/22 52/63/22
f 42/66/23 68/65/23 43/74/23
f 18/69/24 44/68/24 45/75/24
f 35/71/25 61/70/25 62/77/25
f 27/72/26 53/73/26 54/79/26
f 19/81/27 45/138/27 59/82/27
f 20/84/28 46/139/28 47/85/28
f 36/78/29 62/77/29 63/87/29
f 28/80/30 54/79/30 55/89/30
f 32/91/31 58/140/31 46/92/31
f 21/86/32 47/85/32 48/42/32
f 37/88/33 63/87/33 64/95/33
f 29/90/34 55/89/34 56/48/34
o mirror
v -1.008151 1.237660 -0.737348
v -1.008151 1.349996 -0.737348
v 1.004923 1.237661 0.766060
v 1.004923 1.349996 0.766060
v 1.004923 1.237660 -0.737348
v 1.004923 1.349996 -0.737348
v -1.008151 1.237661 0.766060
v -1.008151 1.349996 0.766060
v -0.857166 1.278396 -0.515745
v 0.807650 1.278396 -0.514539
v -0.854123 1.274062 -0.198975
v 0.810779 1.274062 -0.199035
v -0.841656 1.279226 0.516873
v 0.796842 1.279226 0.514306
v -0.841588 1.279226 0.191330
v 0.796802 1.279226 0.191404
v -0.893180 1.237661 0.568439
v 0.848362 1.237661 0.565773
v -0.893097 1.237661 0.139812
v 0.848314 1.237661 0.139889
v -0.897166 1.237660 -0.555774
v 0.847663 1.237660 -0.554532
v -0.897284 1.237661 -0.148965
v 0.847650 1.237661 -0.149027
v -0.235376 1.237661 -0.096712
v 0.229456 1.237661 -0.095059
v 0.229691 1.237661 0.096258
v -0.234885 1.237661 0.095984
v -0.235376 1.030001 -0.096712
v -0.234885 1.030001 0.095984
v -0.231512 0.984564 -0.096712
v -0.231030 0.984659 0.095984
v -0.218857 0.940754 -0.096712
v -0.218403 0.940942 0.095984
v -0.197899 0.900254 -0.096712
v -0.197490 0.900527 0.095984
v -0.169442 0.864622 -0.096712
v -0.169095 0.864969 0.095984
v -0.134581 0.835226 -0.096712
v -0.134308 0.835634 0.095984
v -0.094654 0.813195 -0.096712
v -0.094466 0.813649 0.095984
v -0.051197 0.799378 -0.096712
v -0.051101 0.799860 0.095984
v -0.005879 0.794304 -0.096712
v -0.005879 0.794795 0.095984
v 0.039558 0.798168 -0.096712
v 0.039462 0.798650 0.095984
v 0.083368 0.810823 -0.096712
v 0.083180 0.811277 0.095984
v 0.123867 0.831781 -0.096712
v 0.123594 0.832190 0.095984
v 0.159500 0.860238 -0.096712
v 0.159152 0.860585 0.095984
v 0.188896 0.895099 -0.096712
v 0.188487 0.895372 0.095984
v 0.210926 0.935026 -0.096712
v 0.210472 0.935214 0.095984
v 0.224744 0.978483 -0.096712
v 0.224262 0.978579 0.095984
v 0.229818 1.023801 -0.096712
v 0.229326 1.023801 0.095984
v -1.008151 1.237660 -0.737348
v -1.008151 1.349996 -0.737348
v 1.004923 1.237660 -0.737348
v 1.004923 1.349996 -0.737348
v -1.008151 1.237660 -0.737348
v -1.008151 1.349996 -0.737348
v -1.008151 1.237661 0.766060
v -1.008151 1.349996 0.766060
v 1.004923 1.237661 0.766060
v 1.004923 1.349996 0.766060
v -1.008151 1.237661 0.766060
v -1.008151 1.349996 0.766060
v 1.004923 1.237661 0.766060
v 1.004923 1.349996 0.766060
v 1.004923 1.237660 -0.737348
v 1.004923 1.349996 -0.737348
vt 0.644620 0.968802
vt 0.406391 0.990254
vt 0.644535 0.990251
vt 0.423038 0.938864
vt 0.552701 0.953103
vt 0.406305 0.953109
vt 0.406318 0.968632
vt 0.643767 0.989404
vt 0.406786 0.990604
vt 0.494229 0.879767
vt 0.494229 0.879767
vt 0.494229 0.879767
vt 0.534881 0.894074
vt 0.534788 0.877723
vt 0.552577 0.806772
vt 0.425817 0.933560
vt 0.533287 0.896462
vt 0.533162 0.933616
vt 0.532374 0.869422
vt 0.426229 0.827523
vt 0.532709 0.827762
vt 0.423875 0.822374
vt 0.494142 0.890679
vt 0.494229 0.879767
vt 0.535154 0.874992
vt 0.423970 0.874928
vt 0.425902 0.868919
vt 0.423875 0.937447
vt 0.535110 0.937453
vt 0.423877 0.892584
vt 0.535121 0.892622
vt 0.425854 0.896499
vt 0.423814 0.821794
vt 0.406362 0.806759
vt 0.494229 0.879767
vt 0.423413 0.876566
vt 0.458999 0.879440
vt 0.458912 0.890277
vt 0.494142 0.890679
vt 0.494229 0.879767
vt 0.494142 0.890679
vt 0.494229 0.879767
vt 0.494142 0.890679
vt 0.494229 0.879767
vt 0.494142 0.890679
vt 0.494142 0.890679
vt 0.494229 0.879767
vt 0.494142 0.890679
vt 0.494229 0.879767
vt 0.494142 0.890679
vt 0.494229 0.879767
vt 0.494142 0.890679
vt 0.494229 0.879767
vt 0.494142 0.890679
vt 0.494229 0.879767
vt 0.494142 0.890679
vt 0.494229 0.879767
vt 0.494142 0.890679
vt 0.494229 0.879767
vt 0.494142 0.890679
vt 0.494142 0.890679
vt 0.494229 0.879767
vt 0.494142 0.890679
vt 0.494229 0.879767
vt 0.494142 0.890679
vt 0.494229 0.879767
vt 0.494142 0.890679
vt 0.494142 0.890679
vt 0.376997 0.767587
vt 0.001978 0.992228
vt 0.001978 0.767581
vt 0.644508 0.968764
vt 0.406303 0.990218
vt 0.644530 0.990226
vt 0.406305 0.968738
vt 0.644635 0.990248
vt 0.406246 0.990270
vt 0.406256 0.968677
vt 0.534576 0.938460
vt 0.644077 0.970009
vt 0.535198 0.822068
vt 0.535167 0.822297
vt 0.406348 0.806750
vt 0.423338 0.892930
vt 0.376965 0.992253
vt 0.406284 0.968802
vt 0.644612 0.968729
vn 1.0000 0.0000 0.0000
vn 0.0000 -1.0000 0.0000
vn 0.0000 0.0000 1.0000
vn 0.0000 -0.9999 -0.0137
vn -0.0010 -0.7784 -0.6277
vn 0.6279 -0.7783 0.0001
vn -0.0000 -0.7783 0.6279
vn -0.6280 -0.7783 0.0001
vn -0.0005 -0.7008 0.7133
vn 0.7214 -0.6923 -0.0164
vn -0.0000 -0.8085 -0.5885
vn -0.7025 -0.7116 -0.0000
vn -1.0000 0.0000 0.0025
vn -0.9964 -0.0847 0.0025
vn -0.9607 -0.2775 0.0025
vn -0.8881 -0.4596 0.0025
vn -0.7814 -0.6240 0.0025
vn -0.6447 -0.7645 0.0025
vn -0.4831 -0.8755 0.0025
vn -0.3030 -0.9530 0.0025
vn -0.1113 -0.9938 0.0025
vn 0.0847 -0.9964 0.0025
vn 0.2775 -0.9607 0.0025
vn 0.4596 -0.8881 0.0025
vn 0.6240 -0.7814 0.0025
vn 0.7645 -0.6447 0.0025
vn 0.8755 -0.4831 0.0025
vn 0.9530 -0.3030 0.0025
vn 0.9938 -0.1113 0.0025
vn 1.0000 0.0017 0.0025
vn -0.0000 0.0000 -1.0000
vn 0.0000 1.0000 -0.0000
vn -1.0000 0.0000 0.0000
vn -0.0006 0.0000 1.0000
vn -0.0000 -0.0013 1.0000
vn -0.0010 -0.7781 -0.6281
vn 0.6280 -0.7782 0.0001
vn -0.6279 -0.7783 0.0001
vn -0.0005 -0.7006 0.7135
vn 0.6448 -0.7643 0.0002
vn -0.7147 -0.6995 -0.0025
vn -0.6446 -0.7645 0.0025
vn -0.4831 -0.8756 0.0025
vn 0.7645 -0.6446 0.0025
vn 0.8756 -0.4831 0.0025
vn 1.0000 -0.0017 -0.0012
vn 0.0036 0.0000 -1.0000
vn 0.0001 0.0077 -1.0000
s off
f 143/141/35 146/142/35 144/143/35
f 90/144/36 69/145/36 73/146/36
f 141/147/37 140/148/37 142/149/37
f 106/150/37 122/151/37 130/152/37
f 91/153/36 87/154/36 75/155/36
f 78/156/38 79/157/38 77/158/38
f 83/159/36 82/160/36 81/161/36
f 86/162/39 81/161/39 82/160/39
f 87/154/36 93/163/36 96/164/36
f 81/161/40 87/165/40 83/159/40
f 83/159/41 88/166/41 84/167/41
f 84/167/42 86/162/42 82/160/42
f 77/158/43 90/168/43 78/156/43
f 79/157/44 89/169/44 77/158/44
f 79/157/45 92/170/45 91/171/45
f 80/172/46 90/168/46 92/170/46
f 75/155/36 86/173/36 71/174/36
f 73/146/36 86/173/36 90/144/36
f 93/163/47 98/175/47 96/164/47
f 88/176/36 95/177/36 94/178/36
f 97/179/48 100/180/48 98/175/48
f 99/181/49 102/182/49 100/180/49
f 101/183/50 104/184/50 102/182/50
f 103/185/51 106/150/51 104/184/51
f 105/186/52 108/187/52 106/150/52
f 107/188/53 110/189/53 108/187/53
f 109/190/54 112/191/54 110/189/54
f 111/192/55 114/193/55 112/191/55
f 113/194/56 116/195/56 114/193/56
f 115/196/57 118/197/57 116/195/57
f 117/198/58 120/199/58 118/197/58
f 119/200/59 122/151/59 120/199/59
f 121/201/60 124/202/60 122/151/60
f 123/203/61 126/204/61 124/202/61
f 125/205/62 128/206/62 126/204/62
f 127/207/63 130/152/63 128/206/63
f 94/178/64 130/152/64 129/208/64
f 129/208/65 121/201/65 105/186/65
f 72/209/66 70/210/66 76/211/66
f 133/212/65 132/213/65 134/214/65
f 135/215/67 138/216/67 136/217/67
f 143/141/35 145/218/35 146/142/35
f 90/144/36 89/219/36 69/145/36
f 141/147/37 139/220/37 140/148/37
f 95/177/68 96/164/68 98/175/68
f 98/175/37 100/180/37 102/182/37
f 102/182/37 104/184/37 98/175/37
f 104/184/37 106/150/37 98/175/37
f 106/150/37 108/187/37 110/189/37
f 110/189/37 112/191/37 114/193/37
f 114/193/37 116/195/37 122/151/37
f 116/195/37 118/197/37 122/151/37
f 118/197/37 120/199/37 122/151/37
f 122/151/37 124/202/37 126/204/37
f 126/204/37 128/206/37 122/151/37
f 128/206/37 130/152/37 122/151/37
f 130/152/69 95/177/69 98/175/69
f 106/150/37 110/189/37 122/151/37
f 110/189/37 114/193/37 122/151/37
f 130/152/37 98/175/37 106/150/37
f 85/221/36 75/155/36 87/154/36
f 75/155/36 69/145/36 91/153/36
f 69/145/36 89/219/36 91/153/36
f 78/156/38 80/172/38 79/157/38
f 83/159/36 84/167/36 82/160/36
f 86/162/70 85/222/70 81/161/70
f 95/177/36 88/176/36 96/164/36
f 88/176/36 87/154/36 96/164/36
f 87/154/36 91/153/36 93/163/36
f 81/161/71 85/222/71 87/165/71
f 83/159/41 87/165/41 88/166/41
f 84/167/72 88/166/72 86/162/72
f 77/158/73 89/169/73 90/168/73
f 79/157/74 91/171/74 89/169/74
f 79/157/45 80/172/45 92/170/45
f 80/172/75 78/156/75 90/168/75
f 75/155/36 85/221/36 86/173/36
f 73/146/36 71/223/36 86/173/36
f 93/163/47 97/179/47 98/175/47
f 94/178/36 93/163/36 92/224/36
f 93/163/36 91/153/36 92/224/36
f 92/224/36 88/176/36 94/178/36
f 97/179/48 99/181/48 100/180/48
f 99/181/49 101/183/49 102/182/49
f 101/183/50 103/185/50 104/184/50
f 103/185/51 105/186/51 106/150/51
f 105/186/76 107/188/76 108/187/76
f 107/188/77 109/190/77 110/189/77
f 109/190/54 111/192/54 112/191/54
f 111/192/55 113/194/55 114/193/55
f 113/194/56 115/196/56 116/195/56
f 115/196/57 117/198/57 118/197/57
f 117/198/58 119/200/58 120/199/58
f 119/200/59 121/201/59 122/151/59
f 121/201/78 123/203/78 124/202/78
f 123/203/79 125/205/79 126/204/79
f 125/205/62 127/207/62 128/206/62
f 127/207/63 129/208/63 130/152/63
f 94/178/80 95/177/80 130/152/80
f 93/163/81 94/178/81 97/179/81
f 94/178/82 129/208/82 97/179/82
f 129/208/65 127/207/65 125/205/65
f 125/205/65 123/203/65 129/208/65
f 123/203/65 121/201/65 129/208/65
f 121/201/65 119/200/65 117/198/65
f 117/198/65 115/196/65 113/194/65
f 113/194/65 111/192/65 109/190/65
f 109/190/65 107/188/65 105/186/65
f 105/186/65 103/185/65 97/179/65
f 103/185/65 101/183/65 97/179/65
f 101/183/65 99/181/65 97/179/65
f 121/201/65 117/198/65 113/194/65
f 113/194/65 109/190/65 121/201/65
f 109/190/65 105/186/65 121/201/65
f 97/179/65 129/208/65 105/186/65
f 72/209/66 74/225/66 70/210/66
f 133/212/65 131/226/65 132/213/65
f 135/215/67 137/227/67 138/216/67
