# Blender 4.5.5 LTS
# www.blender.org
o Base
v 1.544651 0.321165 -1.533702
v 1.544651 0.000000 -1.533702
v 1.544651 0.321165 1.550273
v 1.544651 0.000000 1.550273
v -1.539323 0.321165 -1.533702
v -1.539323 0.000000 -1.533702
v -1.539323 0.321165 1.550273
v -1.539323 0.000000 1.550273
v -0.703084 0.321389 0.716680
v -0.703084 1.479155 0.716680
v -0.703084 0.321389 -0.683833
v -0.703084 1.479155 -0.683833
v 0.712719 0.321389 0.716680
v 0.712719 1.479155 0.716680
v 0.712719 0.321389 -0.683833
v 0.712719 1.479155 -0.683833
vn -0.0000 1.0000 -0.0000
vn -0.0000 -0.0000 1.0000
vn -1.0000 -0.0000 -0.0000
vn -0.0000 -1.0000 -0.0000
vn 1.0000 -0.0000 -0.0000
vn -0.0000 -0.0000 -1.0000
vt 0.576644 0.623129
vt 0.656516 0.543023
vt 0.656516 0.623129
vt 0.736674 0.462918
vt 0.736674 0.543023
vt 0.656537 0.783186
vt 0.736674 0.702927
vt 0.736674 0.783186
vt 0.736674 0.623129
vt 0.816934 0.543023
vt 0.816934 0.623129
vt 0.656537 0.702927
vt 0.576525 0.462796
vt 0.496266 0.542689
vt 0.496266 0.462796
vt 0.576525 0.542689
vt 0.496266 0.622948
vt 0.576525 0.622948
vt 0.496266 0.703208
vt 0.576525 0.703208
vt 0.496266 0.783467
vt 0.416007 0.703208
vt 0.416007 0.622948
vt 0.656494 0.622948
vt 0.576644 0.543023
vt 0.656903 0.462918
vt 0.576525 0.783467
vt 0.656494 0.703208
s 0
f 5/1/1 3/2/1 1/3/1
f 3/2/2 8/4/2 4/5/2
f 7/6/3 6/7/3 8/8/3
f 2/9/4 8/10/4 6/11/4
f 1/3/5 4/5/5 2/9/5
f 5/12/6 2/9/6 6/7/6
f 10/13/3 11/14/3 9/15/3
f 12/16/6 15/17/6 11/14/6
f 16/18/5 13/19/5 15/17/5
f 14/20/2 9/21/2 13/19/2
f 15/17/4 9/22/4 11/23/4
f 12/24/1 14/20/1 16/18/1
f 5/1/1 7/25/1 3/2/1
f 3/2/2 7/26/2 8/4/2
f 7/6/3 5/12/3 6/7/3
f 2/9/4 4/5/4 8/10/4
f 1/3/5 3/2/5 4/5/5
f 5/12/6 1/3/6 2/9/6
f 10/13/3 12/16/3 11/14/3
f 12/16/6 16/18/6 15/17/6
f 16/18/5 14/20/5 13/19/5
f 14/20/2 10/27/2 9/21/2
f 15/17/4 13/19/4 9/22/4
f 12/24/1 10/28/1 14/20/1
o mirror
v -1.883328 2.363167 -2.524982
v -1.883328 2.475283 -2.524982
v 1.880985 2.363167 2.522222
v 1.880985 2.475283 2.522222
v 1.880985 2.363167 -2.524982
v 1.880985 2.475283 -2.524982
v -1.883328 2.363167 2.522222
v -1.883328 2.475283 2.522222
v -0.235376 2.362965 -0.517876
v 0.229456 2.362965 -0.516223
v 0.229691 2.362965 -0.324906
v -0.234885 2.362965 -0.325180
v -0.235376 1.813717 -0.517876
v -0.234885 1.813717 -0.325180
v -0.094654 1.612405 -0.517876
v -0.094466 1.612859 -0.325180
v 0.083368 1.610033 -0.517876
v 0.083180 1.610487 -0.325180
v 0.229818 1.807518 -0.517876
v 0.229326 1.807518 -0.325180
v -1.883328 2.362964 -2.523702
v -1.883328 2.475300 -2.523702
v 1.880985 2.362964 -2.523702
v 1.880985 2.475300 -2.523702
v -1.883271 2.362964 -2.524982
v -1.883271 2.475300 -2.524982
v -1.883271 2.362965 2.522222
v -1.883271 2.475300 2.522222
v 1.880294 2.362965 2.521880
v 1.880294 2.475300 2.521880
v -1.883328 2.362965 2.521880
v -1.883328 2.475300 2.521880
v 1.880645 2.362965 2.522615
v 1.880645 2.475300 2.522615
v 1.880645 2.362964 -2.524982
v 1.880645 2.475300 -2.524982
v 0.229538 2.362833 0.356879
v -0.235039 2.362833 0.356604
v -0.235039 1.813585 0.356604
v -0.094620 1.612727 0.356604
v 0.083026 1.610354 0.356604
v 0.229173 1.807386 0.356604
v 0.229495 2.362796 0.545036
v -0.235081 2.362796 0.544762
v -0.235081 1.813549 0.544762
v -0.094662 1.612690 0.544762
v 0.082984 1.610318 0.544762
v 0.229130 1.807349 0.544762
vn 1.0000 -0.0000 -0.0000
vn -0.0000 -0.0000 1.0000
vn -1.0000 -0.0000 0.0025
vn -0.0134 -0.9999 0.0024
vn 1.0000 0.0006 0.0025
vn -0.0000 1.0000 -0.0000
vn -0.0000 -0.0000 -1.0000
vn -1.0000 -0.0000 -0.0000
vn -0.0000 -1.0000 -0.0000
vn 1.0000 -0.0007 0.0002
vn -0.0134 -0.9999 -0.0002
vn -1.0000 -0.0000 -0.0002
vn -0.8196 -0.5730 -0.0003
vn 0.8032 -0.5957 0.0001
vn -0.8196 -0.5729 0.0021
vn 0.8032 -0.5957 0.0022
vn -0.0002 -0.0003 1.0000
vn -0.0133 -0.9999 0.0023
vn 1.0000 -0.0007 -0.0012
vn -0.8196 -0.5730 0.0021
vn 0.8032 -0.5957 0.0020
vn -0.0006 -0.0005 1.0000
vn 0.0006 0.0005 -1.0000
vn -0.0006 -0.0000 1.0000
vn 0.0007 -0.0005 1.0000
vn 0.0036 0.0030 -1.0000
vt 0.644620 0.968802
vt 0.406391 0.990254
vt 0.644535 0.990251
vt 0.406318 0.968632
vt 0.643767 0.989404
vt 0.406786 0.990604
vt 0.494142 0.890679
vt 0.494229 0.879767
vt 0.458912 0.890277
vt 0.376997 0.767587
vt 0.001978 0.992228
vt 0.001978 0.767581
vt 0.644508 0.968764
vt 0.406303 0.990218
vt 0.644530 0.990226
vt 0.406305 0.968738
vt 0.644635 0.990248
vt 0.406246 0.990270
vt 0.406305 0.953109
vt 0.550781 0.808594
vt 0.550781 0.953125
vt 0.458999 0.879440
vt 0.406256 0.968677
vt 0.644077 0.970009
vt 0.376965 0.992253
vt 0.406284 0.968802
vt 0.644612 0.968729
vt 0.406348 0.806750
s 0
f 49/29/7 52/30/7 50/31/7
f 47/32/8 46/33/8 48/34/8
f 25/35/9 30/36/9 28/36/9
f 31/35/10 34/36/10 32/36/10
f 26/37/11 36/36/11 35/35/11
f 20/38/12 18/39/12 24/40/12
f 39/41/13 38/42/13 40/43/13
f 41/44/14 44/45/14 42/46/14
f 21/47/15 23/48/15 17/49/15
f 53/50/16 64/36/16 58/36/16
f 56/36/17 63/36/17 62/36/17
f 55/36/18 60/36/18 54/36/18
f 56/36/19 61/36/19 55/36/19
f 64/36/20 57/36/20 58/36/20
f 31/35/21 30/36/21 29/35/21
f 33/35/22 36/36/22 34/36/22
f 60/36/8 62/36/8 64/36/8
f 58/36/13 56/36/13 54/36/13
f 30/36/23 34/36/23 27/50/23
f 35/35/13 31/35/13 25/35/13
f 49/29/7 51/51/7 52/30/7
f 47/32/8 45/52/8 46/33/8
f 25/35/9 29/35/9 30/36/9
f 31/35/24 33/35/24 34/36/24
f 26/37/25 27/50/25 36/36/25
f 20/38/12 22/53/12 18/39/12
f 39/41/13 37/54/13 38/42/13
f 41/44/14 43/55/14 44/45/14
f 21/47/15 19/56/15 23/48/15
f 53/50/16 59/50/16 64/36/16
f 56/36/17 57/36/17 63/36/17
f 55/36/18 61/36/18 60/36/18
f 56/36/19 62/36/19 61/36/19
f 64/36/20 63/36/20 57/36/20
f 31/35/26 32/36/26 30/36/26
f 33/35/27 35/35/27 36/36/27
f 64/36/28 59/50/28 60/36/28
f 60/36/8 61/36/8 62/36/8
f 62/36/8 63/36/8 64/36/8
f 54/36/29 53/50/29 58/36/29
f 58/36/13 57/36/13 56/36/13
f 56/36/13 55/36/13 54/36/13
f 27/50/30 28/36/30 30/36/30
f 30/36/8 32/36/8 34/36/8
f 34/36/31 36/36/31 27/50/31
f 25/35/32 26/37/32 35/35/32
f 35/35/13 33/35/13 31/35/13
f 31/35/13 29/35/13 25/35/13
o rotate
v -0.235375 1.476541 0.549292
v -0.235064 1.476541 0.354430
v -0.141111 1.476541 0.204248
v 0.141785 1.476541 0.204699
v 0.235375 1.476541 0.355179
v 0.235064 1.476541 0.550041
v 0.141111 1.476541 0.703155
v -0.141785 1.476541 0.702705
v -0.235375 1.985053 0.549292
v -0.235064 1.985053 0.354430
v -0.141111 1.985053 0.204248
v 0.141785 1.985053 0.204699
v 0.235375 1.985053 0.355179
v 0.235064 1.985053 0.550041
v 0.141111 1.985053 0.703155
v -0.141785 1.985053 0.702705
v -0.235375 1.479351 -0.323849
v -0.235064 1.479351 -0.518711
v -0.141111 1.479351 -0.668893
v 0.141785 1.479351 -0.668442
v 0.235375 1.479351 -0.517962
v 0.235064 1.479351 -0.323100
v 0.141111 1.479351 -0.169986
v -0.141785 1.479351 -0.170436
v -0.235375 1.987864 -0.323849
v -0.235064 1.987864 -0.518711
v -0.141111 1.987864 -0.668893
v 0.141785 1.987864 -0.668442
v 0.235375 1.987864 -0.517962
v 0.235064 1.987864 -0.323100
v 0.141111 1.987864 -0.169986
v -0.141785 1.987864 -0.170436
vn 0.0016 -0.0000 -1.0000
vn -0.0016 -0.0000 1.0000
vn -0.8478 -0.0000 -0.5304
vn 0.8492 -0.0000 -0.5281
vn -0.0000 1.0000 -0.0000
vn -0.8537 -0.0000 0.5208
vn 0.8523 -0.0000 0.5230
vt 0.069233 0.610663
vt 0.134796 0.542329
vt 0.134796 0.610663
vt 0.003669 0.610669
vt 0.069233 0.542335
vt 0.069233 0.610669
vt 0.134796 0.519681
vt 0.069233 0.542329
vt 0.069233 0.519681
vt 0.069233 0.633317
vt 0.069414 0.746953
vt 0.098579 0.655924
vt 0.098688 0.724258
vt 0.200469 0.610710
vt 0.229740 0.519681
vt 0.229921 0.633317
vt 0.003669 0.519681
vt 0.200360 0.633317
vt 0.200360 0.519681
vt 0.003669 0.633317
vt 0.069233 0.746953
vt 0.003669 0.746953
vt 0.003669 0.633317
vt 0.003669 0.542335
vt 0.134796 0.633317
vt 0.200360 0.542376
vt 0.069233 0.633317
s 0
f 68/57/33 75/58/33 76/59/33
f 79/60/34 72/61/34 71/62/34
f 74/63/35 67/64/35 66/65/35
f 76/59/36 69/66/36 68/57/36
f 74/67/37 76/68/37 75/69/37
f 80/70/37 78/71/37 73/72/37
f 72/61/38 73/73/38 65/65/38
f 65/74/33 78/63/33 70/75/33
f 69/76/34 74/77/34 66/78/34
f 71/62/39 78/79/39 79/60/39
f 84/57/33 91/58/33 92/59/33
f 95/60/34 88/61/34 87/62/34
f 90/63/35 83/64/35 82/65/35
f 92/59/36 85/66/36 84/57/36
f 90/67/37 92/68/37 91/69/37
f 96/70/37 94/71/37 89/72/37
f 88/61/38 89/73/38 81/65/38
f 81/74/33 94/63/33 86/75/33
f 85/76/34 90/77/34 82/78/34
f 87/62/39 94/79/39 95/60/39
f 68/57/33 67/64/33 75/58/33
f 79/60/34 80/80/34 72/61/34
f 74/63/35 75/58/35 67/64/35
f 76/59/36 77/81/36 69/66/36
f 74/67/37 77/66/37 76/68/37
f 80/70/37 79/82/37 78/71/37
f 72/61/38 80/80/38 73/73/38
f 65/74/33 73/81/33 78/63/33
f 69/76/34 77/83/34 74/77/34
f 71/62/39 70/66/39 78/79/39
f 84/57/33 83/64/33 91/58/33
f 95/60/34 96/80/34 88/61/34
f 90/63/35 91/58/35 83/64/35
f 92/59/36 93/81/36 85/66/36
f 90/67/37 93/66/37 92/68/37
f 96/70/37 95/82/37 94/71/37
f 88/61/38 96/80/38 89/73/38
f 81/74/33 89/81/33 94/63/33
f 85/76/34 93/83/34 90/77/34
f 87/62/39 86/66/39 94/79/39
