# Blender v3.6.2 OBJ File: 'TFRU-SunBoiler.blend'
# www.blender.org
o Base
v 0.500000 0.203523 -0.500000
v 0.500000 0.000000 -0.500000
v 0.500000 0.203523 0.500000
v 0.500000 0.000000 0.500000
v -0.500000 0.203523 -0.500000
v -0.500000 0.000000 -0.500000
v -0.500000 0.203523 0.500000
v -0.500000 0.000000 0.500000
v -0.298995 0.203747 0.286487
v -0.298995 0.756085 0.286487
v -0.298995 0.203747 -0.302391
v -0.298995 0.756085 -0.302391
v 0.293881 0.203747 0.286487
v 0.293881 0.756085 0.286487
v 0.293881 0.203747 -0.302391
v 0.293881 0.756085 -0.302391
vt 0.576644 0.623129
vt 0.656516 0.543023
vt 0.656516 0.623129
vt 0.736674 0.462918
vt 0.736674 0.543023
vt 0.656537 0.783186
vt 0.736674 0.702927
vt 0.736674 0.783186
vt 0.736674 0.623129
vt 0.816934 0.543023
vt 0.816934 0.623129
vt 0.656537 0.702927
vt 0.576525 0.462796
vt 0.496266 0.542689
vt 0.496266 0.462796
vt 0.576525 0.542689
vt 0.496266 0.622948
vt 0.576525 0.622948
vt 0.496266 0.703208
vt 0.576525 0.703208
vt 0.496266 0.783467
vt 0.416007 0.703208
vt 0.416007 0.622948
vt 0.656494 0.622948
vt 0.576644 0.543023
vt 0.656903 0.462918
vt 0.576525 0.783467
vt 0.656494 0.703208
vn 0.0000 1.0000 0.0000
vn 0.0000 0.0000 1.0000
vn -1.0000 0.0000 0.0000
vn 0.0000 -1.0000 0.0000
vn 1.0000 0.0000 0.0000
vn 0.0000 0.0000 -1.0000
s off
f 5/1/1 3/2/1 1/3/1
f 3/2/2 8/4/2 4/5/2
f 7/6/3 6/7/3 8/8/3
f 2/9/4 8/10/4 6/11/4
f 1/3/5 4/5/5 2/9/5
f 5/12/6 2/9/6 6/7/6
f 10/13/3 11/14/3 9/15/3
f 12/16/6 15/17/6 11/14/6
f 16/18/5 13/19/5 15/17/5
f 14/20/2 9/21/2 13/19/2
f 15/17/4 9/22/4 11/23/4
f 12/24/1 14/20/1 16/18/1
f 5/1/1 7/25/1 3/2/1
f 3/2/2 7/26/2 8/4/2
f 7/6/3 5/12/3 6/7/3
f 2/9/4 4/5/4 8/10/4
f 1/3/5 3/2/5 4/5/5
f 5/12/6 1/3/6 2/9/6
f 10/13/3 12/16/3 11/14/3
f 12/16/6 16/18/6 15/17/6
f 16/18/5 14/20/5 13/19/5
f 14/20/2 10/27/2 9/21/2
f 15/17/4 13/19/4 9/22/4
f 12/24/1 10/28/1 14/20/1
o rotate
v -0.235375 0.756274 0.097057
v -0.235064 0.756274 -0.097806
v -0.141111 0.756274 -0.218997
v 0.141785 0.756274 -0.218546
v 0.235375 0.756274 -0.097057
v 0.235064 0.756274 0.097806
v 0.141111 0.756274 0.219435
v -0.141785 0.756274 0.218984
v -0.235375 1.027700 0.097057
v -0.235064 1.027700 -0.097806
v -0.141111 1.027700 -0.218997
v 0.141785 1.027700 -0.218546
v 0.235375 1.027700 -0.097057
v 0.235064 1.027700 0.097806
v 0.141111 1.027700 0.219435
v -0.141785 1.027700 0.218984
vt 0.069233 0.542329
vt 0.134796 0.610663
vt 0.069233 0.610663
vt 0.069233 0.610669
vt 0.003669 0.542335
vt 0.069233 0.542335
vt 0.069233 0.519681
vt 0.134796 0.542329
vt 0.069233 0.633317
vt 0.069414 0.746953
vt 0.098579 0.655924
vt 0.098688 0.724258
vt 0.200469 0.610710
vt 0.229740 0.519681
vt 0.229921 0.633317
vt 0.003669 0.519681
vt 0.069233 0.519681
vt 0.200360 0.633317
vt 0.134796 0.519681
vt 0.200360 0.519681
vt 0.003669 0.633317
vt 0.069233 0.746953
vt 0.003669 0.746953
vt 0.003669 0.610669
vt 0.069233 0.633317
vt 0.003669 0.633317
vt 0.134796 0.519681
vt 0.134796 0.633317
vt 0.069233 0.633317
vt 0.200360 0.542376
vt 0.134796 0.633317
vn 0.0016 -0.0000 -1.0000
vn -0.0016 0.0000 1.0000
vn -0.7903 0.0000 -0.6127
vn 0.7922 -0.0000 -0.6103
vn 0.0000 1.0000 0.0000
vn -0.7933 0.0000 0.6089
vn 0.7914 0.0000 0.6113
s off
f 19/29/7 28/30/7 20/31/7
f 23/32/8 32/33/8 24/34/8
f 18/35/9 27/36/9 19/29/9
f 28/30/10 21/37/10 20/31/10
f 26/38/11 28/39/11 27/40/11
f 32/41/11 30/42/11 25/43/11
f 24/34/12 25/44/12 17/45/12
f 17/46/7 30/47/7 22/48/7
f 21/49/8 26/50/8 18/51/8
f 31/52/13 22/53/13 30/54/13
f 19/29/7 27/36/7 28/30/7
f 23/32/8 31/52/8 32/33/8
f 18/35/9 26/55/9 27/36/9
f 28/30/10 29/56/10 21/37/10
f 26/38/11 29/57/11 28/39/11
f 32/41/11 31/58/11 30/42/11
f 24/34/12 32/33/12 25/44/12
f 17/46/7 25/59/7 30/47/7
f 21/49/8 29/57/8 26/50/8
f 31/52/13 23/32/13 22/53/13
o mirror
v -1.008151 1.237660 -0.737348
v -1.008151 1.349996 -0.737348
v 1.004923 1.237661 0.766060
v 1.004923 1.349996 0.766060
v 1.004923 1.237660 -0.737348
v 1.004923 1.349996 -0.737348
v -1.008151 1.237661 0.766060
v -1.008151 1.349996 0.766060
v -0.857166 1.278396 -0.515745
v 0.807650 1.278396 -0.514539
v -0.854123 1.274062 -0.198975
v 0.810779 1.274062 -0.199035
v -0.841656 1.279226 0.516873
v 0.796842 1.279226 0.514306
v -0.841588 1.279226 0.191330
v 0.796802 1.279226 0.191404
v -0.893180 1.237661 0.568439
v 0.848362 1.237661 0.565773
v -0.893097 1.237661 0.139812
v 0.848314 1.237661 0.139889
v -0.897166 1.237660 -0.555774
v 0.847663 1.237660 -0.554532
v -0.897284 1.237661 -0.148965
v 0.847650 1.237661 -0.149027
v -0.235376 1.237661 -0.096712
v 0.229456 1.237661 -0.095059
v 0.229691 1.237661 0.096258
v -0.234885 1.237661 0.095984
v -0.235376 1.030001 -0.096712
v -0.234885 1.030001 0.095984
v -0.197899 0.900254 -0.096712
v -0.197490 0.900527 0.095984
v -0.094654 0.813195 -0.096712
v -0.094466 0.813649 0.095984
v 0.083368 0.810823 -0.096712
v 0.083180 0.811277 0.095984
v 0.188896 0.895099 -0.096712
v 0.188487 0.895372 0.095984
v 0.229818 1.023801 -0.096712
v 0.229326 1.023801 0.095984
v -1.008151 1.237660 -0.737348
v -1.008151 1.349996 -0.737348
v 1.004923 1.237660 -0.737348
v 1.004923 1.349996 -0.737348
v -1.008151 1.237660 -0.737348
v -1.008151 1.349996 -0.737348
v -1.008151 1.237661 0.766060
v -1.008151 1.349996 0.766060
v 1.004923 1.237661 0.766060
v 1.004923 1.349996 0.766060
v -1.008151 1.237661 0.766060
v -1.008151 1.349996 0.766060
v 1.004923 1.237661 0.766060
v 1.004923 1.349996 0.766060
v 1.004923 1.237660 -0.737348
v 1.004923 1.349996 -0.737348
vt 0.644620 0.968802
vt 0.406391 0.990254
vt 0.644535 0.990251
vt 0.423038 0.938864
vt 0.552701 0.953103
vt 0.406305 0.953109
vt 0.406318 0.968632
vt 0.643767 0.989404
vt 0.406786 0.990604
vt 0.494229 0.879767
vt 0.494229 0.879767
vt 0.494229 0.879767
vt 0.534881 0.894074
vt 0.534788 0.877723
vt 0.552577 0.806772
vt 0.425817 0.933560
vt 0.533287 0.896462
vt 0.533162 0.933616
vt 0.532374 0.869422
vt 0.426229 0.827523
vt 0.532709 0.827762
vt 0.423875 0.822374
vt 0.494142 0.890679
vt 0.494229 0.879767
vt 0.535154 0.874992
vt 0.423970 0.874928
vt 0.425902 0.868919
vt 0.423875 0.937447
vt 0.535110 0.937453
vt 0.423877 0.892584
vt 0.535121 0.892622
vt 0.425854 0.896499
vt 0.423814 0.821794
vt 0.406362 0.806759
vt 0.494229 0.879767
vt 0.423413 0.876566
vt 0.458999 0.879440
vt 0.458912 0.890277
vt 0.494142 0.890679
vt 0.494142 0.890679
vt 0.494229 0.879767
vt 0.494229 0.879767
vt 0.494142 0.890679
vt 0.494142 0.890679
vt 0.376997 0.767587
vt 0.001978 0.992228
vt 0.001978 0.767581
vt 0.644508 0.968764
vt 0.406303 0.990218
vt 0.644530 0.990226
vt 0.406305 0.968738
vt 0.644635 0.990248
vt 0.406246 0.990270
vt 0.494142 0.890679
vt 0.494142 0.890679
vt 0.406256 0.968677
vt 0.534576 0.938460
vt 0.644077 0.970009
vt 0.535198 0.822068
vt 0.535167 0.822297
vt 0.406348 0.806750
vt 0.423338 0.892930
vt 0.376965 0.992253
vt 0.406284 0.968802
vt 0.644612 0.968729
vn 1.0000 0.0000 0.0000
vn 0.0000 -1.0000 0.0000
vn 0.0000 0.0000 1.0000
vn 0.0000 -0.9999 -0.0137
vn -0.0010 -0.7784 -0.6277
vn 0.6279 -0.7783 0.0001
vn -0.0000 -0.7783 0.6279
vn -0.6280 -0.7783 0.0001
vn -0.0005 -0.7008 0.7133
vn 0.7214 -0.6923 -0.0164
vn -0.0000 -0.8085 -0.5885
vn -0.7025 -0.7116 -0.0000
vn -1.0000 0.0000 0.0025
vn 0.6240 -0.7814 0.0024
vn -0.6447 -0.7645 0.0024
vn -0.0134 -0.9999 0.0024
vn 1.0000 0.0017 0.0025
vn 0.0000 0.0000 -1.0000
vn 0.0000 1.0000 -0.0000
vn -1.0000 0.0000 0.0000
vn 0.9530 -0.3030 0.0024
vn -0.9607 -0.2775 0.0024
vn -0.0000 -0.0013 1.0000
vn -0.0006 0.0000 1.0000
vn -0.0010 -0.7781 -0.6281
vn 0.6280 -0.7782 0.0001
vn -0.6279 -0.7783 0.0001
vn -0.0005 -0.7006 0.7135
vn 0.6448 -0.7643 0.0002
vn -0.7147 -0.6995 -0.0025
vn -0.6446 -0.7645 0.0024
vn -0.0133 -0.9999 0.0023
vn 1.0000 -0.0017 -0.0012
vn 0.0036 0.0000 -1.0000
vn 0.0001 0.0077 -1.0000
s off
f 85/60/14 88/61/14 86/62/14
f 54/63/15 33/64/15 37/65/15
f 83/66/16 82/67/16 84/68/16
f 68/69/16 70/70/16 72/71/16
f 55/72/15 51/73/15 39/74/15
f 42/75/17 43/76/17 41/77/17
f 47/78/15 46/79/15 45/80/15
f 50/81/18 45/80/18 46/79/18
f 51/73/15 57/82/15 60/83/15
f 45/80/19 51/84/19 47/78/19
f 47/78/20 52/85/20 48/86/20
f 48/86/21 50/81/21 46/79/21
f 41/77/22 54/87/22 42/75/22
f 43/76/23 53/88/23 41/77/23
f 43/76/24 56/89/24 55/90/24
f 44/91/25 54/87/25 56/89/25
f 39/74/15 50/92/15 35/93/15
f 37/65/15 50/92/15 54/63/15
f 57/82/26 62/94/26 60/83/26
f 52/95/15 59/96/15 58/97/15
f 67/98/27 70/70/27 68/69/27
f 63/99/28 66/100/28 64/101/28
f 65/102/29 68/69/29 66/100/29
f 58/97/30 72/71/30 71/103/30
f 71/103/31 67/98/31 63/99/31
f 36/104/32 34/105/32 40/106/32
f 75/107/31 74/108/31 76/109/31
f 77/110/33 80/111/33 78/112/33
f 69/113/34 72/71/34 70/70/34
f 61/114/35 64/101/35 62/94/35
f 85/60/14 87/115/14 88/61/14
f 54/63/15 53/116/15 33/64/15
f 83/66/16 81/117/16 82/67/16
f 72/71/36 59/96/36 62/94/36
f 59/96/37 60/83/37 62/94/37
f 62/94/16 64/101/16 72/71/16
f 64/101/16 66/100/16 72/71/16
f 66/100/16 68/69/16 72/71/16
f 49/118/15 39/74/15 51/73/15
f 39/74/15 33/64/15 55/72/15
f 33/64/15 53/116/15 55/72/15
f 42/75/17 44/91/17 43/76/17
f 47/78/15 48/86/15 46/79/15
f 50/81/38 49/119/38 45/80/38
f 59/96/15 52/95/15 60/83/15
f 52/95/15 51/73/15 60/83/15
f 51/73/15 55/72/15 57/82/15
f 45/80/39 49/119/39 51/84/39
f 47/78/20 51/84/20 52/85/20
f 48/86/40 52/85/40 50/81/40
f 41/77/41 53/88/41 54/87/41
f 43/76/42 55/90/42 53/88/42
f 43/76/24 44/91/24 56/89/24
f 44/91/43 42/75/43 54/87/43
f 39/74/15 49/118/15 50/92/15
f 37/65/15 35/120/15 50/92/15
f 57/82/26 61/114/26 62/94/26
f 58/97/15 57/82/15 56/121/15
f 57/82/15 55/72/15 56/121/15
f 56/121/15 52/95/15 58/97/15
f 67/98/27 69/113/27 70/70/27
f 63/99/44 65/102/44 66/100/44
f 65/102/45 67/98/45 68/69/45
f 58/97/46 59/96/46 72/71/46
f 57/82/47 58/97/47 61/114/47
f 58/97/48 71/103/48 61/114/48
f 71/103/31 69/113/31 67/98/31
f 67/98/31 65/102/31 63/99/31
f 63/99/31 61/114/31 71/103/31
f 36/104/32 38/122/32 34/105/32
f 75/107/31 73/123/31 74/108/31
f 77/110/33 79/124/33 80/111/33
f 69/113/34 71/103/34 72/71/34
f 61/114/35 63/99/35 64/101/35
