# Blender 3.6.2
# www.blender.org
o base
v 5.000000 1.000000 -1.500000
v 5.000000 0.000000 -1.500000
v 5.000000 1.000000 1.500000
v 5.000000 0.000000 1.500000
v 0.000000 1.000000 -1.500000
v 0.000000 0.000000 -1.500000
v 0.000000 1.000000 1.500000
v 0.000000 0.000000 1.500000
v 0.000000 2.000000 -0.950000
v 0.000000 2.000000 1.050000
v 2.000000 2.000000 -0.950000
v 2.000000 2.000000 1.050000
v 2.000000 1.000000 -1.500000
v 2.000000 1.000000 1.500000
v 2.500000 1.000000 -0.750000
v 2.500000 1.000000 0.750000
v 4.500000 1.000000 -0.750000
v 4.500000 1.000000 0.750000
v 2.500000 1.100000 -0.750000
v 2.500000 1.100000 0.750000
v 4.500000 1.100000 -0.750000
v 4.500000 1.100000 0.750000
vn -0.0000 -0.0000 1.0000
vn -1.0000 -0.0000 -0.0000
vn -0.0000 -1.0000 -0.0000
vn 1.0000 -0.0000 -0.0000
vn -0.0000 -0.0000 -1.0000
vn -0.0000 1.0000 -0.0000
vn -0.0000 0.4104 0.9119
vn -0.0000 0.4819 -0.8762
vt 0.828125 0.621094
vt 0.828125 0.292969
vt 0.884766 0.074219
vt 0.714844 0.945312
vt 0.666016 0.675781
vt 0.769531 0.621094
vt 0.710938 0.617188
vt 0.548828 0.074219
vt 0.710938 0.074219
vt 0.773438 0.945312
vt 0.830078 0.621094
vt 0.830078 0.945312
vt 0.773438 0.621094
vt 0.773438 0.402344
vt 0.716797 0.074219
vt 0.998047 0.074219
vt 0.888672 0.292969
vt 0.888672 0.074219
vt 0.775391 0.292969
vt 0.828125 0.074219
vt 0.826172 0.621094
vt 0.886597 0.621094
vt 0.830078 0.906250
vt 0.830078 0.675781
vt 0.496094 0.945312
vt 0.660156 0.621094
vt 0.660156 0.945312
vt 0.888672 0.835938
vt 0.968750 0.621094
vt 0.968750 0.835938
vt 0.974609 0.523438
vt 0.970703 0.308594
vt 0.974609 0.308594
vt 0.988281 0.472656
vt 0.982422 0.312500
vt 0.988281 0.312500
vt 0.976562 0.835938
vt 0.970703 0.621094
vt 0.976562 0.621094
vt 0.996094 0.472656
vt 0.990234 0.312500
vt 0.996094 0.312500
vt 0.884766 0.621094
vt 0.769531 0.945312
vt 0.666016 0.898438
vt 0.714844 0.621094
vt 0.548828 0.617188
vt 0.716797 0.621094
vt 0.773438 0.074219
vt 0.998047 0.292969
vt 0.775391 0.074219
vt 0.826172 0.402344
vt 0.886719 0.964844
vt 0.496094 0.621094
vt 0.888672 0.621094
vt 0.970703 0.523438
vt 0.982422 0.472656
vt 0.970703 0.835938
vt 0.990234 0.472656
s 0
f 3/1/1 14/2/1 8/3/1
f 7/4/2 9/5/2 6/6/2
f 2/7/3 8/8/3 6/9/3
f 1/10/4 4/11/4 2/12/4
f 5/13/5 13/14/5 2/15/5
f 12/16/6 9/17/6 10/18/6
f 12/19/7 7/20/7 14/2/7
f 9/21/8 13/14/8 5/13/8
f 14/22/4 11/23/4 12/24/4
f 13/25/6 3/26/6 1/27/6
f 20/28/6 21/29/6 19/30/6
f 18/31/1 20/32/1 16/33/1
f 16/34/2 19/35/2 15/36/2
f 15/37/5 21/38/5 17/39/5
f 17/40/4 22/41/4 18/42/4
f 8/3/1 4/43/1 3/1/1
f 14/2/1 7/20/1 8/3/1
f 6/6/2 8/44/2 7/4/2
f 7/4/2 10/45/2 9/5/2
f 9/5/2 5/46/2 6/6/2
f 2/7/3 4/47/3 8/8/3
f 1/10/4 3/13/4 4/11/4
f 2/15/5 6/48/5 5/13/5
f 13/14/5 1/49/5 2/15/5
f 12/16/6 11/50/6 9/17/6
f 12/19/7 10/51/7 7/20/7
f 9/21/8 11/52/8 13/14/8
f 14/22/4 13/53/4 11/23/4
f 13/25/6 14/54/6 3/26/6
f 20/28/6 22/55/6 21/29/6
f 18/31/1 22/56/1 20/32/1
f 16/34/2 20/57/2 19/35/2
f 15/37/5 19/58/5 21/38/5
f 17/40/4 21/59/4 22/41/4
o head
v 3.000000 2.800000 -0.300000
v 0.000225 2.200000 0.500000
v 0.000225 2.200000 -0.500000
v 3.000000 2.800000 0.300000
v 1.000000 2.800000 0.300000
v 1.000000 2.800000 -0.300000
v 3.000000 2.700000 -0.150000
v 3.000000 2.200000 0.150000
v 3.000000 2.200000 -0.150000
v 3.000000 2.700000 0.150000
v 3.300000 2.700000 -0.061402
v 3.211402 2.700000 -0.150000
v 3.211402 2.200000 0.150000
v 3.300000 2.200000 0.061402
v 3.211402 2.200000 -0.150000
v 3.300000 2.200000 -0.061402
v 3.300000 2.700000 0.061402
v 3.211402 2.700000 0.150000
v 3.000000 2.200000 -0.500000
v 3.000000 2.200000 0.500000
v 3.112500 2.000000 0.050000
v 3.112500 2.000000 -0.050000
v 3.112500 2.200000 -0.050000
v 3.212500 2.200000 -0.050000
v 3.212500 2.000000 -0.050000
v 3.212500 2.200000 0.050000
v 3.112500 2.200000 0.050000
v 3.212500 2.000000 0.050000
v 1.999150 2.200000 -0.500000
v 1.999150 2.200000 0.500000
v 0.000225 2.000000 0.500000
v 0.000225 2.000000 -0.500000
v 1.999150 2.000000 -0.500000
v 1.999150 2.000000 0.500000
vn -0.0000 1.0000 -0.0000
vn -0.0000 -1.0000 -0.0000
vn 0.7071 -0.0000 0.7071
vn 0.7071 -0.0000 -0.7071
vn 1.0000 -0.0000 -0.0000
vn -0.0000 -0.0000 1.0000
vn -1.0000 -0.0000 -0.0000
vn -0.0000 -0.0000 -1.0000
vn -0.5146 0.8574 -0.0000
vn -0.0000 0.3162 -0.9487
vn -0.0000 0.3162 0.9487
vt 0.272458 0.877046
vt 0.299873 0.900191
vt 0.299880 0.955415
vt 0.299851 0.877046
vt 0.272458 0.955415
vt 0.272419 0.900344
vt 0.162397 0.957160
vt 0.149443 0.830067
vt 0.162397 0.830171
vt 0.217347 0.830095
vt 0.229480 0.957130
vt 0.217347 0.957036
vt 0.245606 0.957214
vt 0.229566 0.829895
vt 0.245606 0.829895
vt 0.314478 0.904299
vt 0.326173 0.955077
vt 0.326177 0.904301
vt 0.314452 0.955081
vt 0.314478 0.904299
vt 0.314452 0.955081
vt 0.126953 0.449219
vt 0.193359 0.349609
vt 0.209961 0.449219
vt 0.160156 0.732422
vt 0.269531 0.466797
vt 0.269531 0.798828
vt 0.251953 0.117188
vt 0.167969 0.117188
vt 0.084961 0.013672
vt 0.001953 0.158203
vt 0.251953 0.261719
vt 0.085938 0.261719
vt 0.020508 0.533203
vt 0.020508 0.732422
vt 0.105469 0.449219
vt 0.022461 0.482422
vt 0.022461 0.449219
vt 0.015625 0.814453
vt 0.098633 0.980469
vt 0.015625 0.980469
vt 0.001953 0.150391
vt 0.001953 0.117188
vt 0.105469 0.439453
vt 0.022461 0.406250
vt 0.105469 0.406250
vt 0.085938 0.294922
vt 0.105469 0.320312
vt 0.023438 0.398438
vt 0.105469 0.398438
vt 0.299873 0.932271
vt 0.299880 0.955569
vt 0.272468 0.932425
vt 0.189872 0.830171
vt 0.189872 0.957331
vt 0.149416 0.957121
vt 0.189872 0.957331
vt 0.189872 0.830171
vt 0.229590 0.830144
vt 0.229566 0.957214
vt 0.326173 0.955077
vt 0.143555 0.349609
vt 0.160156 0.533203
vt 0.251953 0.013672
vt 0.001953 0.261719
vt 0.168945 0.158203
vt 0.105469 0.482422
vt 0.098633 0.814453
vt 0.167969 0.150391
vt 0.022461 0.439453
vt 0.251953 0.294922
vt 0.023438 0.320312
s 0
f 32/60/9 39/61/9 34/62/9
f 30/63/10 37/64/10 36/65/10
f 35/66/11 39/67/11 40/68/11
f 34/69/12 38/70/12 37/71/12
f 36/72/13 33/73/13 39/74/13
f 48/75/13 47/76/13 46/77/13
f 49/77/14 50/78/14 48/79/14
f 43/77/10 47/80/10 50/75/10
f 45/77/15 43/80/15 49/79/15
f 46/77/16 44/80/16 45/75/16
f 41/81/13 26/82/13 42/83/13
f 27/84/17 25/85/17 24/86/17
f 41/87/18 51/88/18 28/89/18
f 26/90/19 24/91/19 52/92/19
f 23/93/9 27/84/9 26/94/9
f 52/95/13 55/96/13 51/97/13
f 42/98/10 51/99/10 41/100/10
f 51/88/16 54/101/16 25/102/16
f 24/103/15 54/104/15 53/105/15
f 24/91/14 56/106/14 52/92/14
f 53/107/10 55/108/10 56/109/10
f 34/62/9 29/64/9 32/60/9
f 32/60/9 40/63/9 39/61/9
f 39/61/9 33/110/9 34/62/9
f 36/65/10 35/60/10 30/63/10
f 30/63/10 31/111/10 37/64/10
f 37/64/10 38/112/10 36/65/10
f 40/68/14 32/113/14 30/114/14
f 35/66/11 36/115/11 39/67/11
f 40/68/14 30/114/14 35/66/14
f 31/116/16 29/117/16 34/69/16
f 34/69/12 33/118/12 38/70/12
f 37/71/16 31/116/16 34/69/16
f 36/72/13 38/119/13 33/73/13
f 48/75/13 50/80/13 47/76/13
f 49/77/14 43/76/14 50/78/14
f 43/77/10 44/120/10 47/80/10
f 45/77/15 44/76/15 43/80/15
f 46/77/16 47/76/16 44/80/16
f 41/81/13 23/121/13 26/82/13
f 27/84/17 28/122/17 25/85/17
f 28/89/18 23/123/18 41/87/18
f 51/88/18 25/102/18 28/89/18
f 52/92/19 42/124/19 26/90/19
f 26/90/19 27/125/19 24/91/19
f 23/93/9 28/122/9 27/84/9
f 52/95/13 56/126/13 55/96/13
f 42/98/10 52/127/10 51/99/10
f 51/88/16 55/128/16 54/101/16
f 24/103/15 25/129/15 54/104/15
f 24/91/14 53/130/14 56/106/14
f 53/107/10 54/131/10 55/108/10
o processingItem
v 3.000000 1.100000 -0.450000
v 3.000000 1.100000 0.450000
v 4.000000 1.100000 -0.450000
v 4.000000 1.100000 0.450000
v 3.000000 1.400000 -0.450000
v 3.000000 1.400000 0.450000
v 4.000000 1.400000 -0.450000
v 4.000000 1.400000 0.450000
v 3.500000 1.400000 -0.225000
v 3.500000 1.400000 0.225000
v 3.250000 1.400000 0.225000
v 3.250000 1.400000 -0.225000
v 3.500000 1.300000 -0.225000
v 3.500000 1.300000 0.225000
v 3.250000 1.300000 0.225000
v 3.250000 1.300000 -0.225000
v 3.500000 1.400000 -0.450000
v 3.250000 1.400000 -0.450000
v 3.500000 1.400000 0.450000
v 3.250000 1.400000 0.450000
vn -0.0000 -1.0000 -0.0000
vn 1.0000 -0.0000 -0.0000
vn -0.0000 -0.0000 1.0000
vn -1.0000 -0.0000 -0.0000
vn -0.0000 -0.0000 -1.0000
vn -0.0000 1.0000 -0.0000
vt 0.999482 0.999448
vt 0.913825 0.844866
vt 0.998759 0.844866
vt 0.963661 0.998340
vt 0.963638 0.844868
vt 0.914014 0.906939
vt 0.913892 0.870668
vt 0.976228 0.566335
vt 0.976228 0.611842
vt 0.957464 0.611842
vt 0.957464 0.566343
vt 0.914260 0.953989
vt 0.914020 0.908505
vt 0.914291 0.998340
vt 0.999482 0.844880
s 0
f 59/132/20 58/133/20 57/134/20
f 59/135/21 64/133/21 60/136/21
f 60/135/22 75/137/22 76/138/22
f 58/135/23 61/133/23 57/136/23
f 66/139/24 71/140/24 67/140/24
f 66/141/23 69/139/23 70/140/23
f 71/139/21 68/141/21 67/142/21
f 68/139/22 69/140/22 65/140/22
f 57/135/24 74/143/24 73/144/24
f 71/142/25 69/140/25 72/141/25
f 67/140/25 75/142/25 66/139/25
f 61/145/25 76/136/25 74/135/25
f 75/133/25 63/132/25 73/145/25
f 73/139/25 68/141/25 65/142/25
f 59/132/20 60/145/20 58/133/20
f 59/135/21 63/145/21 64/133/21
f 62/133/22 58/136/22 60/135/22
f 60/135/22 64/145/22 75/137/22
f 76/138/22 62/133/22 60/135/22
f 58/135/23 62/145/23 61/133/23
f 66/139/24 70/139/24 71/140/24
f 66/141/23 65/142/23 69/139/23
f 71/139/21 72/140/21 68/141/21
f 68/139/22 72/139/22 69/140/22
f 63/133/24 59/136/24 57/135/24
f 57/135/24 61/145/24 74/143/24
f 73/144/24 63/133/24 57/135/24
f 71/142/25 70/139/25 69/140/25
f 67/140/25 76/141/25 75/142/25
f 61/145/25 62/133/25 76/136/25
f 75/133/25 64/146/25 63/132/25
f 73/139/25 74/140/25 68/141/25
