# Blender 3.6.2
# www.blender.org
mtllib CNCMachine3.mtl
o base
v 5.000000 1.000000 -1.500000
v 5.000000 0.000000 -1.500000
v 5.000000 1.000000 1.500000
v 5.000000 0.000000 1.500000
v 0.000000 1.000000 -1.500000
v 0.000000 0.000000 -1.500000
v 0.000000 1.000000 1.500000
v 0.000000 0.000000 1.500000
v 0.000000 2.000000 -0.950000
v 0.000000 2.000000 1.050000
v 2.000000 2.000000 -0.950000
v 2.000000 2.000000 1.050000
v 2.000000 1.000000 -1.500000
v 2.000000 1.000000 1.500000
v 2.500000 1.000000 -0.750000
v 2.500000 1.000000 0.750000
v 4.500000 1.000000 -0.750000
v 4.500000 1.000000 0.750000
v 2.500000 1.100000 -0.750000
v 2.500000 1.100000 0.750000
v 4.500000 1.100000 -0.750000
v 4.500000 1.100000 0.750000
vn -0.0000 -0.0000 1.0000
vn -1.0000 -0.0000 -0.0000
vn -0.0000 -1.0000 -0.0000
vn 1.0000 -0.0000 -0.0000
vn -0.0000 -0.0000 -1.0000
vn -0.0000 1.0000 -0.0000
vn -0.0000 0.4104 0.9119
vn -0.0000 0.4819 -0.8762
vt 0.830443 0.616379
vt 0.830443 0.293827
vt 0.883866 0.078793
vt 0.714921 0.944600
vt 0.661162 0.681182
vt 0.768679 0.622048
vt 0.710259 0.616379
vt 0.548983 0.078793
vt 0.710259 0.078793
vt 0.774921 0.944600
vt 0.828680 0.622048
vt 0.828680 0.944600
vt 0.771151 0.616379
vt 0.771151 0.401345
vt 0.718132 0.078793
vt 0.994218 0.078793
vt 0.886700 0.304579
vt 0.886700 0.078793
vt 0.774921 0.293827
vt 0.830443 0.078793
vt 0.829057 0.616379
vt 0.885273 0.622048
vt 0.831514 0.885465
vt 0.831514 0.659679
vt 0.497052 0.944600
vt 0.658328 0.622048
vt 0.658328 0.944600
vt 0.888107 0.837082
vt 0.968745 0.622048
vt 0.968745 0.837082
vt 0.975515 0.525282
vt 0.970172 0.310247
vt 0.975515 0.310247
vt 0.987415 0.471882
vt 0.982039 0.310606
vt 0.987415 0.310606
vt 0.976881 0.837082
vt 0.971579 0.622048
vt 0.976881 0.622048
vt 0.995625 0.471882
vt 0.990249 0.310606
vt 0.995625 0.310606
vt 0.883866 0.616379
vt 0.768679 0.944600
vt 0.661162 0.906969
vt 0.714921 0.622048
vt 0.548983 0.616379
vt 0.774921 0.622048
vt 0.718132 0.616379
vt 0.771151 0.078793
vt 0.994218 0.304579
vt 0.774921 0.078793
vt 0.829057 0.401345
vt 0.885273 0.944600
vt 0.497052 0.622048
vt 0.888107 0.622048
vt 0.970172 0.525282
vt 0.982039 0.471882
vt 0.971579 0.837082
vt 0.990249 0.471882
s 0
usemtl Material
f 3/1/1 14/2/1 8/3/1
f 7/4/2 9/5/2 6/6/2
f 2/7/3 8/8/3 6/9/3
f 1/10/4 4/11/4 2/12/4
f 5/13/5 13/14/5 2/15/5
f 12/16/6 9/17/6 10/18/6
f 12/19/7 7/20/7 14/2/7
f 9/21/8 13/14/8 5/13/8
f 14/22/4 11/23/4 12/24/4
f 13/25/6 3/26/6 1/27/6
f 20/28/6 21/29/6 19/30/6
f 18/31/1 20/32/1 16/33/1
f 16/34/2 19/35/2 15/36/2
f 15/37/5 21/38/5 17/39/5
f 17/40/4 22/41/4 18/42/4
f 8/3/1 4/43/1 3/1/1
f 14/2/1 7/20/1 8/3/1
f 6/6/2 8/44/2 7/4/2
f 7/4/2 10/45/2 9/5/2
f 9/5/2 5/46/2 6/6/2
f 2/7/3 4/47/3 8/8/3
f 1/10/4 3/48/4 4/11/4
f 2/15/5 6/49/5 5/13/5
f 13/14/5 1/50/5 2/15/5
f 12/16/6 11/51/6 9/17/6
f 12/19/7 10/52/7 7/20/7
f 9/21/8 11/53/8 13/14/8
f 14/22/4 13/54/4 11/23/4
f 13/25/6 14/55/6 3/26/6
f 20/28/6 22/56/6 21/29/6
f 18/31/1 22/57/1 20/32/1
f 16/34/2 20/58/2 19/35/2
f 15/37/5 19/59/5 21/38/5
f 17/40/4 21/60/4 22/41/4
o head
v 3.000000 2.800000 -0.300000
v 0.000225 2.200000 0.500000
v 0.000225 2.200000 -0.500000
v 3.000000 2.800000 0.300000
v 1.000000 2.800000 0.300000
v 1.000000 2.800000 -0.300000
v 3.000000 2.700000 -0.150000
v 3.000000 2.200000 0.150000
v 3.000000 2.200000 -0.150000
v 3.000000 2.700000 0.150000
v 3.300000 2.700000 -0.061402
v 3.211402 2.700000 -0.150000
v 3.211402 2.200000 0.150000
v 3.300000 2.200000 0.061402
v 3.211402 2.200000 -0.150000
v 3.300000 2.200000 -0.061402
v 3.300000 2.700000 0.061402
v 3.211402 2.700000 0.150000
v 3.000000 2.200000 -0.500000
v 3.000000 2.200000 0.500000
v 3.112500 2.000000 0.050000
v 3.112500 2.000000 -0.050000
v 3.112500 2.200000 -0.050000
v 3.212500 2.200000 -0.050000
v 3.212500 2.000000 -0.050000
v 3.212500 2.200000 0.050000
v 3.112500 2.200000 0.050000
v 3.212500 2.000000 0.050000
v 1.999150 2.200000 -0.500000
v 1.999150 2.200000 0.500000
v 0.000225 2.000000 0.500000
v 0.000225 2.000000 -0.500000
v 1.999150 2.000000 -0.500000
v 1.999150 2.000000 0.500000
vn -0.0000 1.0000 -0.0000
vn -0.0000 -1.0000 -0.0000
vn 0.7071 -0.0000 0.7071
vn 0.7071 -0.0000 -0.7071
vn 1.0000 -0.0000 -0.0000
vn -0.0000 -0.0000 1.0000
vn -1.0000 -0.0000 -0.0000
vn -0.0000 -0.0000 -1.0000
vn -0.5146 0.8574 -0.0000
vn -0.0000 0.3162 -0.9487
vn -0.0000 0.3162 0.9487
vt 0.272458 0.877046
vt 0.299873 0.900191
vt 0.299880 0.955415
vt 0.299851 0.877046
vt 0.272458 0.955415
vt 0.272419 0.900344
vt 0.162397 0.957160
vt 0.149443 0.830067
vt 0.162397 0.830171
vt 0.217347 0.830095
vt 0.229480 0.957130
vt 0.217347 0.957036
vt 0.245606 0.957214
vt 0.229566 0.829895
vt 0.245606 0.829895
vt 0.314478 0.904299
vt 0.326173 0.955077
vt 0.326177 0.904301
vt 0.314452 0.955081
vt 0.314478 0.904299
vt 0.314452 0.955081
vt 0.126953 0.449219
vt 0.193359 0.349609
vt 0.209961 0.449219
vt 0.160156 0.732422
vt 0.269531 0.466797
vt 0.269531 0.798828
vt 0.251953 0.117188
vt 0.167969 0.117188
vt 0.084961 0.013672
vt 0.001953 0.158203
vt 0.251953 0.261719
vt 0.085938 0.261719
vt 0.020508 0.533203
vt 0.020508 0.732422
vt 0.104492 0.449219
vt 0.021484 0.482422
vt 0.021484 0.449219
vt 0.015625 0.814453
vt 0.098633 0.980469
vt 0.015625 0.980469
vt 0.001953 0.150391
vt 0.001953 0.117188
vt 0.105469 0.439453
vt 0.022461 0.406250
vt 0.105469 0.406250
vt 0.085938 0.294922
vt 0.299873 0.932271
vt 0.299880 0.955569
vt 0.272468 0.932425
vt 0.189872 0.830171
vt 0.189872 0.957331
vt 0.149416 0.957121
vt 0.189872 0.957331
vt 0.189872 0.830171
vt 0.229590 0.830144
vt 0.229566 0.957214
vt 0.326173 0.955077
vt 0.143555 0.349609
vt 0.160156 0.533203
vt 0.251953 0.013672
vt 0.001953 0.261719
vt 0.168945 0.158203
vt 0.104492 0.482422
vt 0.098633 0.814453
vt 0.167969 0.150391
vt 0.022461 0.439453
vt 0.251953 0.294922
s 0
usemtl Material
f 32/61/9 39/62/9 34/63/9
f 30/64/10 37/65/10 36/66/10
f 35/67/11 39/68/11 40/69/11
f 34/70/12 38/71/12 37/72/12
f 36/73/13 33/74/13 39/75/13
f 48/76/13 47/77/13 46/78/13
f 49/78/14 50/79/14 48/80/14
f 43/78/10 47/81/10 50/76/10
f 45/78/15 43/81/15 49/80/15
f 46/78/16 44/81/16 45/76/16
f 41/82/13 26/83/13 42/84/13
f 27/85/17 25/86/17 24/87/17
f 41/88/18 51/89/18 28/90/18
f 26/91/19 24/92/19 52/93/19
f 23/94/9 27/85/9 26/95/9
f 52/96/13 55/97/13 51/98/13
f 42/99/10 51/100/10 41/101/10
f 51/89/16 54/102/16 25/103/16
f 24/104/15 54/105/15 53/106/15
f 24/92/14 56/107/14 52/93/14
f 34/63/9 29/65/9 32/61/9
f 32/61/9 40/64/9 39/62/9
f 39/62/9 33/108/9 34/63/9
f 36/66/10 35/61/10 30/64/10
f 30/64/10 31/109/10 37/65/10
f 37/65/10 38/110/10 36/66/10
f 40/69/14 32/111/14 30/112/14
f 35/67/11 36/113/11 39/68/11
f 40/69/14 30/112/14 35/67/14
f 31/114/16 29/115/16 34/70/16
f 34/70/12 33/116/12 38/71/12
f 37/72/16 31/114/16 34/70/16
f 36/73/13 38/117/13 33/74/13
f 48/76/13 50/81/13 47/77/13
f 49/78/14 43/77/14 50/79/14
f 43/78/10 44/118/10 47/81/10
f 45/78/15 44/77/15 43/81/15
f 46/78/16 47/77/16 44/81/16
f 41/82/13 23/119/13 26/83/13
f 27/85/17 28/120/17 25/86/17
f 28/90/18 23/121/18 41/88/18
f 51/89/18 25/103/18 28/90/18
f 52/93/19 42/122/19 26/91/19
f 26/91/19 27/123/19 24/92/19
f 23/94/9 28/120/9 27/85/9
f 52/96/13 56/124/13 55/97/13
f 42/99/10 52/125/10 51/100/10
f 51/89/16 55/126/16 54/102/16
f 24/104/15 25/127/15 54/105/15
f 24/92/14 53/128/14 56/107/14
o processingItem
v 3.000000 1.100000 -0.450000
v 3.000000 1.100000 0.450000
v 4.000000 1.100000 -0.450000
v 4.000000 1.100000 0.450000
v 3.000000 1.400000 -0.450000
v 3.000000 1.400000 0.450000
v 4.000000 1.400000 -0.450000
v 4.000000 1.400000 0.450000
v 3.500000 1.400000 -0.225000
v 3.500000 1.400000 0.225000
v 3.250000 1.400000 0.225000
v 3.250000 1.400000 -0.225000
v 3.500000 1.300000 -0.225000
v 3.500000 1.300000 0.225000
v 3.250000 1.300000 0.225000
v 3.250000 1.300000 -0.225000
v 3.500000 1.400000 -0.450000
v 3.250000 1.400000 -0.450000
v 3.500000 1.400000 0.450000
v 3.250000 1.400000 0.450000
vn -0.0000 -1.0000 -0.0000
vn 1.0000 -0.0000 -0.0000
vn -0.0000 -0.0000 1.0000
vn -1.0000 -0.0000 -0.0000
vn -0.0000 -0.0000 -1.0000
vn -0.0000 1.0000 -0.0000
vt 0.999482 0.999448
vt 0.913825 0.844866
vt 0.998759 0.844866
vt 0.963661 0.998340
vt 0.963638 0.844868
vt 0.914014 0.906939
vt 0.913892 0.870668
vt 0.976228 0.566335
vt 0.976228 0.611842
vt 0.957464 0.611842
vt 0.957464 0.566343
vt 0.914260 0.953989
vt 0.914020 0.908505
vt 0.914291 0.998340
vt 0.999482 0.844880
s 0
usemtl Material
f 59/129/20 58/130/20 57/131/20
f 59/132/21 64/130/21 60/133/21
f 60/132/22 75/134/22 76/135/22
f 58/132/23 61/130/23 57/133/23
f 66/136/24 71/137/24 67/137/24
f 66/138/23 69/136/23 70/137/23
f 71/136/21 68/138/21 67/139/21
f 68/136/22 69/137/22 65/137/22
f 57/132/24 74/140/24 73/141/24
f 71/139/25 69/137/25 72/138/25
f 67/137/25 75/139/25 66/136/25
f 61/142/25 76/133/25 74/132/25
f 75/130/25 63/129/25 73/142/25
f 73/136/25 68/138/25 65/139/25
f 59/129/20 60/142/20 58/130/20
f 59/132/21 63/142/21 64/130/21
f 62/130/22 58/133/22 60/132/22
f 60/132/22 64/142/22 75/134/22
f 76/135/22 62/130/22 60/132/22
f 58/132/23 62/142/23 61/130/23
f 66/136/24 70/136/24 71/137/24
f 66/138/23 65/139/23 69/136/23
f 71/136/21 72/137/21 68/138/21
f 68/136/22 72/136/22 69/137/22
f 63/130/24 59/133/24 57/132/24
f 57/132/24 61/142/24 74/140/24
f 73/141/24 63/130/24 57/132/24
f 71/139/25 70/136/25 69/137/25
f 67/137/25 76/138/25 75/139/25
f 61/142/25 62/130/25 76/133/25
f 75/130/25 64/143/25 63/129/25
f 73/136/25 74/137/25 68/138/25
