# Blender 3.6.2
# www.blender.org
o base
v 5.000000 1.000000 -1.500000
v 5.000000 -0.000000 -1.500000
v 5.000000 1.000000 1.500000
v 5.000000 0.000000 1.500000
v 0.000000 1.000000 -1.500000
v 0.000000 -0.000000 -1.500000
v 0.000000 1.000000 1.500000
v 0.000000 0.000000 1.500000
v 0.000000 2.000000 -0.950000
v 0.000000 2.000000 1.050000
v 2.000000 2.000000 -0.950000
v 2.000000 2.000000 1.050000
v 2.000000 1.000000 -1.500000
v 2.000000 1.000000 1.500000
v 2.500000 1.000000 -0.750000
v 2.500000 1.000000 0.750000
v 4.500000 1.000000 -0.750000
v 4.500000 1.000000 0.750000
v 2.500000 1.100000 -0.750000
v 2.500000 1.100000 0.750000
v 4.500000 1.100000 -0.750000
v 4.500000 1.100000 0.750000
vn 1.0000 -0.0000 -0.0000
vn -0.0000 1.0000 -0.0000
vn -0.0000 -0.0000 -1.0000
vn -1.0000 -0.0000 -0.0000
vn -0.0000 -1.0000 -0.0000
vn -0.0000 0.4104 0.9119
vn -0.0000 0.4819 -0.8762
vn -0.0000 -0.0000 1.0000
vt 0.773438 0.945312
vt 0.830078 0.621094
vt 0.830078 0.945312
vt 0.998047 0.074219
vt 0.888672 0.292969
vt 0.888672 0.074219
vt 0.830078 0.906250
vt 0.886719 0.621094
vt 0.886719 0.964844
vt 0.773438 0.402344
vt 0.716797 0.074219
vt 0.716797 0.621094
vt 0.660156 0.945312
vt 0.496094 0.621094
vt 0.660156 0.621094
vt 0.996094 0.312500
vt 0.970703 0.523438
vt 0.970703 0.312500
vt 0.976562 0.621094
vt 0.970703 0.835938
vt 0.970703 0.621094
vt 0.710938 0.074219
vt 0.548828 0.617188
vt 0.548828 0.074219
vt 0.968750 0.835938
vt 0.888672 0.621094
vt 0.968750 0.621094
vt 0.828125 0.292969
vt 0.775391 0.074219
vt 0.828125 0.074219
vt 0.773438 0.621094
vt 0.826172 0.402344
vt 0.884766 0.074219
vt 0.884766 0.621094
vt 0.998047 0.292969
vt 0.666016 0.898438
vt 0.714844 0.621094
vt 0.769531 0.945312
vt 0.830078 0.675781
vt 0.773438 0.074219
vt 0.496094 0.945312
vt 0.996094 0.523438
vt 0.976562 0.835938
vt 0.710938 0.617188
vt 0.888672 0.835938
vt 0.775391 0.292969
vt 0.826172 0.621094
vt 0.828125 0.621094
vt 0.714844 0.945312
vt 0.666016 0.675781
vt 0.769531 0.621094
s 0
f 1/1/1 4/2/1 2/3/1
f 12/4/2 9/5/2 10/6/2
f 11/7/1 14/8/1 13/9/1
f 13/10/3 2/11/3 6/12/3
f 1/13/2 14/14/2 3/15/2
f 18/16/1 21/17/1 22/18/1
f 17/19/3 19/20/3 21/21/3
f 15/16/4 20/17/4 19/18/4
f 6/22/5 4/23/5 8/24/5
f 19/25/2 22/26/2 21/27/2
f 14/28/6 10/29/6 7/30/6
f 5/31/7 11/32/7 13/10/7
f 1/1/1 3/31/1 4/2/1
f 14/28/8 8/33/8 4/34/8
f 12/4/2 11/35/2 9/5/2
f 10/36/4 5/37/4 8/38/4
f 16/16/8 22/17/8 20/18/8
f 11/7/1 12/39/1 14/8/1
f 6/12/3 5/31/3 13/10/3
f 13/10/3 1/40/3 2/11/3
f 1/13/2 13/41/2 14/14/2
f 18/16/1 17/42/1 21/17/1
f 17/19/3 15/43/3 19/20/3
f 15/16/4 16/42/4 20/17/4
f 6/22/5 2/44/5 4/23/5
f 19/25/2 20/45/2 22/26/2
f 14/28/6 12/46/6 10/29/6
f 5/31/7 9/47/7 11/32/7
f 4/34/8 3/48/8 14/28/8
f 14/28/8 7/30/8 8/33/8
f 8/38/4 7/49/4 10/36/4
f 10/36/4 9/50/4 5/37/4
f 5/37/4 6/51/4 8/38/4
f 16/16/8 18/42/8 22/17/8
o head
v 3.000000 2.800000 -0.300000
v 0.000225 2.200000 0.500000
v 0.000225 2.200000 -0.500000
v 3.000000 2.800000 0.300000
v 1.000000 2.800000 0.300000
v 1.000000 2.800000 -0.300000
v 3.000000 2.700000 -0.150000
v 3.000000 2.200000 0.150000
v 3.000000 2.200000 -0.150000
v 3.000000 2.700000 0.150000
v 3.300000 2.700000 -0.061402
v 3.211402 2.700000 -0.150000
v 3.211402 2.200000 0.150000
v 3.300000 2.200000 0.061402
v 3.211402 2.200000 -0.150000
v 3.300000 2.200000 -0.061402
v 3.300000 2.700000 0.061402
v 3.211402 2.700000 0.150000
v 3.000000 2.200000 -0.500000
v 3.000000 2.200000 0.500000
v 3.112500 2.000000 0.050000
v 3.112500 2.000000 -0.050000
v 3.112500 2.200000 -0.050000
v 3.212500 2.200000 -0.050000
v 3.212500 2.000000 -0.050000
v 3.212500 2.200000 0.050000
v 3.112500 2.200000 0.050000
v 3.212500 2.000000 0.050000
v 1.999150 2.200000 -0.500000
v 1.999150 2.200000 0.500000
v 0.000225 2.000000 0.500000
v 0.000225 2.000000 -0.500000
v 1.999150 2.000000 -0.500000
v 1.999150 2.000000 0.500000
vn 1.0000 -0.0000 -0.0000
vn -0.0000 -0.0000 1.0000
vn 0.7071 -0.0000 -0.7071
vn -0.0000 -1.0000 -0.0000
vn -1.0000 -0.0000 -0.0000
vn -0.0000 -0.0000 -1.0000
vn -0.0000 0.3162 0.9487
vn -0.5146 0.8574 -0.0000
vn 0.7071 -0.0000 0.7071
vn -0.0000 1.0000 -0.0000
vn -0.0000 0.3162 -0.9487
vt 0.244141 0.832031
vt 0.230469 0.957031
vt 0.230469 0.832031
vt 0.189453 0.832031
vt 0.162109 0.957031
vt 0.162109 0.832031
vt 0.216797 0.957031
vt 0.314453 0.906250
vt 0.326172 0.957031
vt 0.314453 0.957031
vt 0.189453 0.957031
vt 0.015625 0.980469
vt 0.099609 0.812500
vt 0.099609 0.980469
vt 0.085938 0.261719
vt 0.001953 0.156250
vt 0.251953 0.261719
vt 0.269531 0.796875
vt 0.160156 0.531250
vt 0.269531 0.468750
vt 0.251953 0.296875
vt 0.085938 0.296875
vt 0.023438 0.449219
vt 0.105469 0.484375
vt 0.023438 0.484375
vt 0.150391 0.957031
vt 0.150391 0.832031
vt 0.001953 0.117188
vt 0.167969 0.152344
vt 0.001953 0.152344
vt 0.105469 0.406250
vt 0.023438 0.437500
vt 0.023438 0.406250
vt 0.105469 0.335938
vt 0.023438 0.394531
vt 0.105469 0.394531
vt 0.298828 0.957031
vt 0.285156 0.933594
vt 0.271484 0.878906
vt 0.326172 0.906250
vt 0.207031 0.449219
vt 0.144531 0.351562
vt 0.193359 0.351562
vt 0.298828 0.878906
vt 0.271484 0.957031
vt 0.021484 0.734375
vt 0.160156 0.734375
vt 0.167969 0.117188
vt 0.085938 0.015625
vt 0.251953 0.015625
vt 0.023438 0.335938
vt 0.244141 0.957031
vt 0.216797 0.832031
vt 0.015625 0.812500
vt 0.001953 0.261719
vt 0.167969 0.156250
vt 0.105469 0.449219
vt 0.105469 0.437500
vt 0.271484 0.898438
vt 0.126953 0.449219
vt 0.298828 0.898438
vt 0.021484 0.531250
vt 0.251953 0.117188
s 0
f 39/52/9 38/53/9 33/54/9
f 32/55/10 35/56/10 40/57/10
f 37/58/11 33/54/11 38/53/11
f 50/59/12 44/60/12 47/61/12
f 49/59/13 44/60/13 43/61/13
f 45/59/14 47/60/14 44/61/14
f 48/59/10 43/60/10 50/61/10
f 29/55/14 37/58/14 31/62/14
f 41/63/12 52/64/12 51/65/12
f 52/66/15 26/67/15 24/68/15
f 24/69/16 28/70/16 25/71/16
f 52/66/10 53/72/10 56/73/10
f 51/74/9 56/75/9 55/76/9
f 40/57/17 36/77/17 39/78/17
f 25/79/14 55/80/14 54/81/14
f 53/82/13 25/83/13 54/84/13
f 53/85/12 55/86/12 56/87/12
f 31/88/12 38/89/12 35/90/12
f 46/91/9 50/61/9 47/60/9
f 42/92/9 23/93/9 26/94/9
f 40/95/18 33/89/18 29/96/18
f 26/97/18 28/70/18 27/98/18
f 51/99/19 28/100/19 23/101/19
f 53/85/12 54/102/12 55/86/12
f 39/52/9 36/103/9 38/53/9
f 32/55/10 30/62/10 35/56/10
f 37/58/11 34/104/11 33/54/11
f 50/59/12 43/91/12 44/60/12
f 49/59/13 45/91/13 44/60/13
f 45/59/14 46/91/14 47/60/14
f 48/59/10 49/91/10 43/60/10
f 29/55/14 34/104/14 37/58/14
f 41/63/12 42/105/12 52/64/12
f 52/66/15 42/106/15 26/67/15
f 26/67/15 27/107/15 24/68/15
f 24/69/16 27/98/16 28/70/16
f 52/66/10 24/68/10 53/72/10
f 51/74/9 52/108/9 56/75/9
f 40/57/17 35/56/17 36/77/17
f 25/79/14 51/99/14 55/80/14
f 53/82/13 24/109/13 25/83/13
f 35/90/12 30/95/12 31/88/12
f 31/88/12 37/96/12 38/89/12
f 38/89/12 36/110/12 35/90/12
f 46/91/9 48/59/9 50/61/9
f 42/92/9 41/111/9 23/93/9
f 29/96/18 32/90/18 40/95/18
f 40/95/18 39/112/18 33/89/18
f 33/89/18 34/88/18 29/96/18
f 26/97/18 23/113/18 28/70/18
f 23/101/19 41/114/19 51/99/19
f 51/99/19 25/79/19 28/100/19
o processingItem
v 3.000000 1.100000 -0.450000
v 3.000000 1.100000 0.450000
v 4.000000 1.100000 -0.450000
v 4.000000 1.100000 0.450000
v 3.000000 1.400000 -0.450000
v 3.000000 1.400000 0.450000
v 4.000000 1.400000 -0.450000
v 4.000000 1.400000 0.450000
v 3.500000 1.400000 -0.225000
v 3.500000 1.400000 0.225000
v 3.250000 1.400000 0.225000
v 3.250000 1.400000 -0.225000
v 3.500000 1.300000 -0.225000
v 3.500000 1.300000 0.225000
v 3.250000 1.300000 0.225000
v 3.250000 1.300000 -0.225000
v 3.500000 1.400000 -0.450000
v 3.250000 1.400000 -0.450000
v 3.500000 1.400000 0.450000
v 3.250000 1.400000 0.450000
vn -0.0000 -1.0000 -0.0000
vn 1.0000 -0.0000 -0.0000
vn -0.0000 -0.0000 1.0000
vn -1.0000 -0.0000 -0.0000
vn -0.0000 -0.0000 -1.0000
vn -0.0000 1.0000 -0.0000
vt 0.999482 0.999448
vt 0.913825 0.844866
vt 0.998759 0.844866
vt 0.963661 0.998340
vt 0.963638 0.844868
vt 0.914014 0.906939
vt 0.913892 0.870668
vt 0.976228 0.566335
vt 0.976228 0.611842
vt 0.957464 0.611842
vt 0.957464 0.566343
vt 0.914260 0.953989
vt 0.914020 0.908505
vt 0.914291 0.998340
vt 0.999482 0.844880
s 0
f 59/115/20 58/116/20 57/117/20
f 59/118/21 64/116/21 60/119/21
f 60/118/22 75/120/22 76/121/22
f 58/118/23 61/116/23 57/119/23
f 66/122/24 71/123/24 67/123/24
f 66/124/23 69/122/23 70/123/23
f 71/122/21 68/124/21 67/125/21
f 68/122/22 69/123/22 65/123/22
f 57/118/24 74/126/24 73/127/24
f 71/125/25 69/123/25 72/124/25
f 67/123/25 75/125/25 66/122/25
f 61/128/25 76/119/25 74/118/25
f 75/116/25 63/115/25 73/128/25
f 73/122/25 68/124/25 65/125/25
f 59/115/20 60/128/20 58/116/20
f 59/118/21 63/128/21 64/116/21
f 62/116/22 58/119/22 60/118/22
f 60/118/22 64/128/22 75/120/22
f 76/121/22 62/116/22 60/118/22
f 58/118/23 62/128/23 61/116/23
f 66/122/24 70/122/24 71/123/24
f 66/124/23 65/125/23 69/122/23
f 71/122/21 72/123/21 68/124/21
f 68/122/22 72/122/22 69/123/22
f 63/116/24 59/119/24 57/118/24
f 57/118/24 61/128/24 74/126/24
f 73/127/24 63/116/24 57/118/24
f 71/125/25 70/122/25 69/123/25
f 67/123/25 76/124/25 75/125/25
f 61/128/25 62/116/25 76/119/25
f 75/116/25 64/129/25 63/115/25
f 73/122/25 74/123/25 68/124/25
