# Blender 4.5.5 LTS
# www.blender.org
o base
v 0.000000 0.000000 0.000000
v 0.000000 1.000000 0.000000
v 0.000000 0.000000 -3.000000
v 0.000000 1.000000 -3.000000
v 3.000000 0.000000 0.000000
v 3.000000 1.000000 0.000000
v 3.000000 0.000000 -3.000000
v 3.000000 1.000000 -3.000000
v 0.000000 2.200000 0.000000
v 0.000000 2.200000 -3.000000
v 3.000000 2.200000 -3.000000
v 3.000000 2.200000 0.000000
v 0.000000 3.000000 0.000000
v 0.000000 3.000000 -3.000000
v 3.000000 3.000000 -3.000000
v 3.000000 3.000000 0.000000
v 3.000000 2.200000 -0.500000
v 3.000000 2.200000 -2.500000
v 3.000000 1.000000 -0.500000
v 3.000000 1.000000 -2.500000
v 0.500000 1.000000 0.000000
v 0.000000 1.000000 -0.500000
v 0.500000 1.000000 -3.000000
v 0.500000 2.200000 0.000000
v 0.000000 2.200000 -0.500000
v 0.500000 2.200000 -3.000000
v 2.500000 1.000000 -3.000000
v 2.500000 2.200000 -3.000000
v 0.000000 1.000000 -2.500000
v 0.000000 2.200000 -2.500000
v 2.500000 1.000000 0.000000
v 2.500000 2.200000 0.000000
v 3.000000 1.300000 -0.500000
v 3.000000 1.300000 -2.500000
v 2.500000 1.000000 -2.500000
v 2.500000 1.000000 -0.500000
v 2.500000 1.300000 -2.500000
v 2.500000 1.300000 -0.500000
v 0.500000 1.300000 0.000000
v 2.500000 1.300000 0.000000
v 0.500000 1.300000 -3.000000
v 2.500000 1.300000 -3.000000
v 0.000000 1.300000 -0.500000
v 0.000000 1.300000 -2.500000
v 0.500000 1.000000 -0.500000
v 0.500000 1.000000 -2.500000
v 0.500000 1.300000 -0.500000
v 0.500000 1.300000 -2.500000
v 0.500000 1.000000 -2.500000
v 2.500000 1.000000 -2.500000
v 0.500000 1.300000 -2.500000
v 2.500000 1.300000 -2.500000
v 2.500000 1.000000 -0.500000
v 0.500000 1.000000 -0.500000
v 2.500000 1.300000 -0.500000
v 0.500000 1.300000 -0.500000
v 1.900000 2.300000 -1.900000
v 1.900000 2.300000 -1.100000
v 1.100000 2.300000 -1.900000
v 1.100000 2.300000 -1.100000
v 1.900000 2.000000 -1.100000
v 1.600000 1.700000 -1.400000
v 1.600000 1.700000 -1.600000
v 1.900000 2.000000 -1.900000
v 1.400000 1.700000 -1.400000
v 1.100000 2.000000 -1.100000
v 1.400000 1.700000 -1.600000
v 1.100000 2.000000 -1.900000
v 1.600000 1.600000 -1.400000
v 1.600000 1.600000 -1.600000
v 1.400000 1.600000 -1.600000
v 1.400000 1.600000 -1.400000
vn -1.0000 -0.0000 -0.0000
vn -0.0000 -0.0000 -1.0000
vn 1.0000 -0.0000 -0.0000
vn -0.0000 -0.0000 1.0000
vn -0.0000 -1.0000 -0.0000
vn -0.0000 1.0000 -0.0000
vn 0.7071 -0.0000 -0.7071
vn 0.7071 -0.0000 0.7071
vn -0.7071 -0.0000 0.7071
vn -0.7071 -0.0000 -0.7071
vn 0.7071 -0.7071 -0.0000
vn -0.0000 -0.7071 -0.7071
vn -0.7071 -0.7071 -0.0000
vn -0.0000 -0.7071 0.7071
vt 0.847656 0.804688
vt 0.847656 0.542969
vt 0.980469 0.476562
vt 0.593750 0.093750
vt 0.980469 0.093750
vt 0.695312 0.804688
vt 0.593750 0.863281
vt 0.593750 0.476562
vt 0.593750 0.804688
vt 0.523438 0.863281
vt 0.207031 0.804688
vt 0.695312 0.542969
vt 0.847656 0.476562
vt 0.695312 0.863281
vt 0.847656 0.863281
vt 0.695312 0.476562
vt 0.164062 0.421875
vt 0.109375 0.574219
vt 0.109375 0.421875
vt 0.164062 0.574219
vt 0.628906 0.937500
vt 0.425781 0.988281
vt 0.425781 0.937500
vt 0.863281 0.960938
vt 0.644531 0.988281
vt 0.644531 0.960938
vt 0.402344 0.910156
vt 0.347656 0.988281
vt 0.347656 0.910156
vt 0.402344 0.988281
vt 0.628906 0.988281
vt 0.523438 0.476562
vt 0.523438 0.093750
vt 0.593750 0.152344
vt 0.324219 0.921875
vt 0.285156 0.988281
vt 0.285156 0.921875
vt 0.324219 0.988281
vt 0.816406 0.542969
vt 0.164062 0.839844
vt 0.054688 0.878906
vt 0.015625 0.839844
vt 0.054688 0.949219
vt 0.015625 0.988281
vt 0.125000 0.949219
vt 0.164062 0.988281
vt 0.125000 0.878906
vt 0.164062 0.640625
vt 0.113281 0.808594
vt 0.113281 0.640625
vt 0.164062 0.808594
vt 0.199219 0.933594
vt 0.183594 0.988281
vt 0.183594 0.933594
vt 0.257812 0.933594
vt 0.203125 0.988281
vt 0.203125 0.933594
vt 0.199219 0.988281
vt 0.980469 0.863281
vt 0.207031 0.542969
vt 0.207031 0.476562
vt 0.269531 0.476562
vt 0.593750 0.542969
vt 0.269531 0.863281
vt 0.207031 0.863281
vt 0.863281 0.988281
vt 0.207031 0.414062
vt 0.207031 0.152344
vt 0.207031 0.093750
vt 0.269531 0.093750
vt 0.593750 0.414062
vt 0.816406 0.804688
vt 0.257812 0.988281
s 0
f 22/1/1 29/2/1 3/3/1
f 23/1/2 27/2/2 7/3/2
f 20/1/3 19/2/3 5/3/3
f 31/1/4 21/2/4 1/3/4
f 7/3/5 1/4/5 3/5/5
f 32/6/4 16/7/4 13/8/4
f 28/9/5 18/10/5 32/11/5
f 14/3/6 16/4/6 15/5/6
f 26/6/2 14/7/2 15/8/2
f 18/6/3 15/7/3 16/8/3
f 25/6/1 13/7/1 14/8/1
f 24/12/4 2/13/4 21/2/4
f 9/14/1 22/1/1 2/15/1
f 32/6/4 6/15/4 12/14/4
f 19/2/3 12/16/3 6/13/3
f 18/6/3 8/15/3 11/14/3
f 27/2/2 11/16/2 8/13/2
f 26/6/2 4/15/2 10/14/2
f 29/2/1 10/16/1 4/13/1
f 24/17/7 22/18/7 25/19/7
f 30/17/8 23/18/8 26/19/8
f 28/17/9 20/18/9 18/19/9
f 32/19/10 19/20/10 31/18/10
f 34/21/6 38/22/6 33/23/6
f 36/24/1 37/25/1 35/26/1
f 20/27/2 37/28/2 34/29/2
f 33/28/4 36/27/4 19/30/4
f 40/22/6 56/21/6 39/31/6
f 29/32/6 20/33/6 27/34/6
f 46/24/3 47/25/3 45/26/3
f 22/35/4 47/36/4 43/37/4
f 44/36/2 46/35/2 29/38/2
f 43/22/6 48/21/6 44/31/6
f 50/24/4 51/25/4 49/26/4
f 42/28/3 50/27/3 27/30/3
f 41/21/6 52/22/6 42/23/6
f 23/27/1 51/28/1 41/29/1
f 54/24/2 55/25/2 53/26/2
f 31/35/3 55/36/3 40/37/3
f 39/36/1 54/35/1 21/38/1
f 31/1/4 39/39/4 21/2/4
f 20/1/3 33/39/3 19/2/3
f 23/1/2 42/39/2 27/2/2
f 22/1/1 44/39/1 29/2/1
f 61/40/11 63/41/11 64/42/11
f 64/42/12 67/43/12 68/44/12
f 68/44/13 65/45/13 66/46/13
f 66/46/14 62/47/14 61/40/14
f 66/48/4 58/49/4 60/50/4
f 64/51/3 58/50/3 61/48/3
f 68/50/2 57/51/2 64/49/2
f 66/51/1 59/50/1 68/48/1
f 62/52/4 72/53/4 69/54/4
f 72/55/5 70/56/5 69/57/5
f 67/54/1 72/58/1 65/53/1
f 62/54/3 70/58/3 63/53/3
f 63/58/2 71/54/2 67/52/2
f 3/3/1 1/59/1 2/15/1
f 3/3/1 2/15/1 22/1/1
f 29/2/1 4/13/1 3/3/1
f 7/3/2 3/59/2 4/15/2
f 7/3/2 4/15/2 23/1/2
f 27/2/2 8/13/2 7/3/2
f 5/3/3 7/59/3 8/15/3
f 5/3/3 8/15/3 20/1/3
f 19/2/3 6/13/3 5/3/3
f 1/3/4 5/59/4 6/15/4
f 1/3/4 6/15/4 31/1/4
f 21/2/4 2/13/4 1/3/4
f 7/3/5 5/8/5 1/4/5
f 13/8/4 9/16/4 24/12/4
f 32/6/4 12/14/4 16/7/4
f 13/8/4 24/12/4 32/6/4
f 24/60/5 9/61/5 25/62/5
f 30/32/5 10/8/5 26/63/5
f 24/60/5 25/62/5 30/32/5
f 17/64/5 12/65/5 32/11/5
f 32/11/5 24/60/5 30/32/5
f 30/32/5 26/63/5 28/9/5
f 28/9/5 11/7/5 18/10/5
f 18/10/5 17/64/5 32/11/5
f 32/11/5 30/32/5 28/9/5
f 14/3/6 13/8/6 16/4/6
f 15/8/2 11/16/2 28/12/2
f 26/6/2 10/14/2 14/7/2
f 15/8/2 28/12/2 26/6/2
f 16/8/3 12/16/3 17/12/3
f 18/6/3 11/14/3 15/7/3
f 16/8/3 17/12/3 18/6/3
f 14/8/1 10/16/1 30/12/1
f 25/6/1 9/14/1 13/7/1
f 14/8/1 30/12/1 25/6/1
f 24/12/4 9/16/4 2/13/4
f 9/14/1 25/6/1 22/1/1
f 32/6/4 31/1/4 6/15/4
f 19/2/3 17/12/3 12/16/3
f 18/6/3 20/1/3 8/15/3
f 27/2/2 28/12/2 11/16/2
f 26/6/2 23/1/2 4/15/2
f 29/2/1 30/12/1 10/16/1
f 24/17/7 21/20/7 22/18/7
f 30/17/8 29/20/8 23/18/8
f 28/17/9 27/20/9 20/18/9
f 32/19/10 17/17/10 19/20/10
f 34/21/6 37/31/6 38/22/6
f 36/24/1 38/66/1 37/25/1
f 20/27/2 35/30/2 37/28/2
f 33/28/4 38/29/4 36/27/4
f 40/22/6 55/23/6 56/21/6
f 22/62/6 2/61/6 21/67/6
f 31/68/6 6/69/6 19/70/6
f 22/62/6 21/67/6 31/68/6
f 23/71/6 4/8/6 29/32/6
f 29/32/6 22/62/6 31/68/6
f 31/68/6 19/70/6 20/33/6
f 20/33/6 8/4/6 27/34/6
f 27/34/6 23/71/6 29/32/6
f 29/32/6 31/68/6 20/33/6
f 46/24/3 48/66/3 47/25/3
f 22/35/4 45/38/4 47/36/4
f 44/36/2 48/37/2 46/35/2
f 43/22/6 47/23/6 48/21/6
f 50/24/4 52/66/4 51/25/4
f 42/28/3 52/29/3 50/27/3
f 41/21/6 51/31/6 52/22/6
f 23/27/1 49/30/1 51/28/1
f 54/24/2 56/66/2 55/25/2
f 31/35/3 53/38/3 55/36/3
f 39/36/1 56/37/1 54/35/1
f 31/1/4 40/72/4 39/39/4
f 20/1/3 34/72/3 33/39/3
f 23/1/2 41/72/2 42/39/2
f 22/1/1 43/72/1 44/39/1
f 61/40/11 62/47/11 63/41/11
f 64/42/12 63/41/12 67/43/12
f 68/44/13 67/43/13 65/45/13
f 66/46/14 65/45/14 62/47/14
f 66/48/4 61/51/4 58/49/4
f 64/51/3 57/49/3 58/50/3
f 68/50/2 59/48/2 57/51/2
f 66/51/1 60/49/1 59/50/1
f 62/52/4 65/58/4 72/53/4
f 72/55/5 71/73/5 70/56/5
f 67/54/1 71/52/1 72/58/1
f 62/54/3 69/52/3 70/58/3
f 63/58/2 70/53/2 71/54/2
o wafer
v 1.500000 1.250000 -0.500000
v 1.500000 1.350000 -0.500000
v 1.500000 1.250000 -1.500000
v 1.500000 1.350000 -1.500000
v 2.500000 1.250000 -0.500000
v 2.500000 1.350000 -0.500000
v 2.500000 1.250000 -1.500000
v 2.500000 1.350000 -1.500000
vn -1.0000 -0.0000 -0.0000
vn -0.0000 -0.0000 -1.0000
vn 1.0000 -0.0000 -0.0000
vn -0.0000 -0.0000 1.0000
vn -0.0000 -1.0000 -0.0000
vn -0.0000 1.0000 -0.0000
vt 0.082031 0.597656
vt -0.000000 0.679688
vt -0.000000 0.597656
vt 0.082031 0.679688
s 0
f 74/74/15 75/75/15 73/76/15
f 76/77/16 79/76/16 75/75/16
f 80/74/17 77/75/17 79/76/17
f 78/77/18 73/76/18 77/75/18
f 79/76/19 73/77/19 75/74/19
f 76/76/20 78/77/20 80/74/20
f 74/74/15 76/77/15 75/75/15
f 76/77/16 80/74/16 79/76/16
f 80/74/17 78/77/17 77/75/17
f 78/77/18 74/74/18 73/76/18
f 79/76/19 77/75/19 73/77/19
f 76/76/20 74/75/20 78/77/20
o arm.x
v 0.498535 1.250000 -1.125000
v 0.498535 1.150000 -1.125000
v 2.498535 1.150000 -1.125000
v 2.498535 1.250000 -1.125000
v 0.500000 1.250000 -1.225000
v 0.496962 1.150000 -1.225000
v 2.496962 1.150000 -1.225000
v 2.496962 1.250000 -1.225000
v 0.498535 1.250000 -0.875000
v 0.498535 1.150000 -0.875000
v 2.498535 1.150000 -0.875000
v 2.498535 1.250000 -0.875000
v 0.498535 1.250000 -0.775000
v 0.498535 1.150000 -0.775000
v 2.498535 1.150000 -0.775000
v 2.498535 1.250000 -0.775000
vn 0.9999 -0.0000 -0.0157
vn -0.0000 -0.0000 -1.0000
vn -0.0000 -1.0000 -0.0000
vn -0.0000 1.0000 -0.0000
vn -0.9994 0.0304 0.0157
vn -0.0000 -0.0000 1.0000
vn -1.0000 -0.0000 -0.0000
vn 1.0000 -0.0000 -0.0000
vn -0.9999 -0.0000 -0.0147
vt 0.039062 0.019531
vt 0.019531 0.039062
vt 0.019531 0.019531
vt 0.000000 0.398438
vt 0.019531 0.000000
vt 0.019531 0.398438
vt 0.000000 0.000000
vt 0.039062 0.000000
vt 0.039062 0.058594
vt 0.019531 0.058594
vt 0.039062 0.078125
vt 0.019531 0.078125
vt 0.039062 0.039062
s 0
f 83/78/21 88/79/21 84/80/21
f 89/81/22 91/82/22 90/83/22
f 85/83/22 87/84/22 86/81/22
f 82/82/23 87/81/23 83/83/23
f 81/81/24 88/82/24 85/83/24
f 82/80/25 85/85/25 86/78/25
f 89/83/24 96/84/24 92/82/24
f 83/81/26 81/82/26 82/84/26
f 95/81/26 93/82/26 94/84/26
f 89/79/27 94/86/27 93/87/27
f 92/87/28 95/88/28 91/89/28
f 91/83/23 94/84/23 90/82/23
f 83/78/21 87/90/21 88/79/21
f 89/81/22 92/84/22 91/82/22
f 85/83/22 88/82/22 87/84/22
f 82/82/23 86/84/23 87/81/23
f 81/81/24 84/84/24 88/82/24
f 82/80/29 81/82/29 85/85/29
f 89/83/24 93/81/24 96/84/24
f 83/81/26 84/83/26 81/82/26
f 95/81/26 96/83/26 93/82/26
f 89/79/27 90/90/27 94/86/27
f 92/87/28 96/86/28 95/88/28
f 91/83/23 95/81/23 94/84/23
o arm.z
v 1.875834 1.150000 -0.500203
v 1.875834 1.050000 -0.500203
v 1.875834 1.050000 -2.500203
v 1.875834 1.150000 -2.500203
v 1.775834 1.150000 -0.501669
v 1.775834 1.050000 -0.498630
v 1.775834 1.050000 -2.498631
v 1.775834 1.150000 -2.498631
v 2.124166 1.150000 -0.500203
v 2.124166 1.050000 -0.500203
v 2.124166 1.050000 -2.500203
v 2.124166 1.150000 -2.500203
v 2.224166 1.150000 -0.500203
v 2.224166 1.050000 -0.500203
v 2.224166 1.050000 -2.500203
v 2.224166 1.150000 -2.500203
vn -0.0157 -0.0000 -0.9999
vn -1.0000 -0.0000 -0.0000
vn -0.0000 -1.0000 -0.0000
vn -0.0000 1.0000 -0.0000
vn 0.0157 0.0304 0.9994
vn 1.0000 -0.0000 -0.0000
vn -0.0000 -0.0000 1.0000
vn -0.0000 -0.0000 -1.0000
vn -0.0147 -0.0000 0.9999
vt 0.039062 0.019531
vt 0.019531 0.039062
vt 0.019531 0.019531
vt 0.019531 0.398438
vt 0.000000 -0.000000
vt 0.000000 0.398438
vt 0.019531 -0.000000
vt 0.039062 -0.000000
vt 0.039062 0.058594
vt 0.019531 0.058594
vt 0.019531 0.078125
vt 0.039062 0.078125
vt 0.039062 0.039062
s 0
f 99/91/30 104/92/30 100/93/30
f 105/94/31 107/95/31 106/96/31
f 101/94/31 103/95/31 102/96/31
f 98/95/32 103/94/32 99/96/32
f 97/95/33 104/94/33 101/97/33
f 98/93/34 101/98/34 102/91/34
f 105/95/33 112/94/33 108/96/33
f 99/94/35 97/95/35 98/97/35
f 111/94/35 109/95/35 110/97/35
f 105/92/36 110/99/36 109/100/36
f 107/101/37 112/99/37 111/102/37
f 107/94/32 110/97/32 106/97/32
f 99/91/30 103/103/30 104/92/30
f 105/94/31 108/97/31 107/95/31
f 101/94/31 104/97/31 103/95/31
f 98/95/32 102/97/32 103/94/32
f 97/95/33 100/96/33 104/94/33
f 98/93/38 97/97/38 101/98/38
f 105/95/33 109/97/33 112/94/33
f 99/94/35 100/96/35 97/95/35
f 111/94/35 112/96/35 109/95/35
f 105/92/36 106/103/36 110/99/36
f 107/101/37 108/100/37 112/99/37
f 107/94/32 111/94/32 110/97/32
o model
v 2.100000 2.150000 -0.900000
v 2.100000 2.050000 -0.900000
v 2.100000 2.150000 -2.100000
v 2.100000 2.050000 -2.100000
v 0.900000 2.150000 -0.900000
v 0.900000 2.050000 -0.900000
v 0.900000 2.150000 -2.100000
v 0.900000 2.050000 -2.100000
vn 1.0000 -0.0000 -0.0000
vn -0.0000 -0.0000 -1.0000
vn -1.0000 -0.0000 -0.0000
vn -0.0000 -0.0000 1.0000
vn -0.0000 -1.0000 -0.0000
vn -0.0000 1.0000 -0.0000
vt 0.078125 0.511719
vt 0.000000 0.589844
vt 0.000000 0.511719
vt 0.078125 0.589844
s 0
f 114/104/39 115/105/39 113/106/39
f 116/107/40 119/106/40 115/105/40
f 120/104/41 117/105/41 119/106/41
f 118/107/42 113/106/42 117/105/42
f 116/106/43 118/107/43 120/104/43
f 119/106/44 113/106/44 115/105/44
f 114/104/39 116/107/39 115/105/39
f 116/107/40 120/104/40 119/106/40
f 120/104/41 118/107/41 117/105/41
f 118/107/42 114/104/42 113/106/42
f 116/106/43 114/105/43 118/107/43
f 119/106/44 117/105/44 113/106/44
o light
v 1.600000 1.600000 -1.400000
v 1.600000 1.600000 -1.600000
v 1.400000 1.600000 -1.400000
v 1.400000 1.600000 -1.600000
v 1.600000 1.345831 -1.400000
v 1.600000 1.345831 -1.600000
v 1.400000 1.345831 -1.600000
v 1.400000 1.345831 -1.400000
vn -0.0000 -0.0000 -1.0000
vn -0.0000 -0.0000 1.0000
vn -1.0000 -0.0000 -0.0000
vn 1.0000 -0.0000 -0.0000
vn -0.0000 1.0000 -0.0000
vt 0.070312 0.496094
vt 0.000000 0.406250
vt 0.070312 0.406250
vt 0.000000 0.496094
s 0
f 122/108/45 127/109/45 124/110/45
f 121/110/46 128/111/46 125/109/46
f 124/109/47 128/108/47 123/111/47
f 121/109/48 126/108/48 122/111/48
f 122/110/49 123/111/49 121/109/49
f 122/108/45 126/111/45 127/109/45
f 121/110/46 123/108/46 128/111/46
f 124/109/47 127/110/47 128/108/47
f 121/109/48 125/110/48 126/108/48
f 122/110/49 124/108/49 123/111/49
